<svg width="440" height="248" viewBox="0 0 440 248" fill="none" xmlns="http://www.w3.org/2000/svg">
<g clip-path="url(#clip0_705_42336)">
<path d="M0 0H440V247.5H0V0Z" fill="#1B152B"/>
<line x1="-9" y1="123.5" x2="632" y2="123.5" stroke="#B785F4"/>
<line y1="-0.5" x2="34" y2="-0.5" transform="matrix(-4.37114e-08 1 1 4.37114e-08 2 124)" stroke="#B785F4" stroke-opacity="0.45"/>
<line x1="140.5" y1="124" x2="140.5" y2="90" stroke="#B785F4"/>
<line y1="-0.5" x2="34" y2="-0.5" transform="matrix(-4.37114e-08 1 1 4.37114e-08 144 124)" stroke="#B785F4" stroke-opacity="0.45"/>
<line x1="283.5" y1="124" x2="283.5" y2="90" stroke="#B785F4"/>
<line y1="-0.5" x2="34" y2="-0.5" transform="matrix(-4.37114e-08 1 1 4.37114e-08 287 124)" stroke="#B785F4" stroke-opacity="0.45"/>
<line x1="425.5" y1="124" x2="425.5" y2="90" stroke="#B785F4"/>
<line y1="-0.5" x2="34" y2="-0.5" transform="matrix(-4.37114e-08 1 1 4.37114e-08 429 124)" stroke="#B785F4" stroke-opacity="0.45"/>
<line x1="4.5" y1="124" x2="4.5" y2="82" stroke="#B785F4"/>
<line y1="-0.5" x2="42" y2="-0.5" transform="matrix(-4.37114e-08 1 1 4.37114e-08 8 124)" stroke="#B785F4" stroke-opacity="0.45"/>
<line x1="146.5" y1="124" x2="146.5" y2="82" stroke="#B785F4"/>
<line y1="-0.5" x2="42" y2="-0.5" transform="matrix(-4.37114e-08 1 1 4.37114e-08 151 124)" stroke="#B785F4" stroke-opacity="0.45"/>
<line x1="289.5" y1="124" x2="289.5" y2="82" stroke="#B785F4"/>
<line y1="-0.5" x2="42" y2="-0.5" transform="matrix(-4.37114e-08 1 1 4.37114e-08 293 124)" stroke="#B785F4" stroke-opacity="0.45"/>
<line x1="431.5" y1="124" x2="431.5" y2="82" stroke="#B785F4"/>
<line y1="-0.5" x2="42" y2="-0.5" transform="matrix(-4.37114e-08 1 1 4.37114e-08 435 124)" stroke="#B785F4" stroke-opacity="0.45"/>
<line x1="41.5" y1="124" x2="41.5" y2="83" stroke="#B785F4"/>
<line y1="-0.5" x2="41" y2="-0.5" transform="matrix(-4.37114e-08 1 1 4.37114e-08 46 124)" stroke="#B785F4" stroke-opacity="0.45"/>
<line x1="183.5" y1="124" x2="183.5" y2="83" stroke="#B785F4"/>
<line y1="-0.5" x2="41" y2="-0.5" transform="matrix(-4.37114e-08 1 1 4.37114e-08 187 124)" stroke="#B785F4" stroke-opacity="0.45"/>
<line x1="326.5" y1="124" x2="326.5" y2="83" stroke="#B785F4"/>
<line y1="-0.5" x2="41" y2="-0.5" transform="matrix(-4.37114e-08 1 1 4.37114e-08 330 124)" stroke="#B785F4" stroke-opacity="0.45"/>
<line x1="60.5" y1="124" x2="60.5" y2="83" stroke="#B785F4"/>
<line y1="-0.5" x2="41" y2="-0.5" transform="matrix(-4.37114e-08 1 1 4.37114e-08 64 124)" stroke="#B785F4" stroke-opacity="0.45"/>
<line x1="202.5" y1="124" x2="202.5" y2="83" stroke="#B785F4"/>
<line y1="-0.5" x2="41" y2="-0.5" transform="matrix(-4.37114e-08 1 1 4.37114e-08 206 124)" stroke="#B785F4" stroke-opacity="0.45"/>
<line x1="344.5" y1="124" x2="344.5" y2="83" stroke="#B785F4"/>
<line y1="-0.5" x2="41" y2="-0.5" transform="matrix(-4.37114e-08 1 1 4.37114e-08 349 124)" stroke="#B785F4" stroke-opacity="0.45"/>
<line x1="72.5" y1="124" x2="72.5" y2="85" stroke="#B785F4"/>
<line y1="-0.5" x2="39" y2="-0.5" transform="matrix(-4.37114e-08 1 1 4.37114e-08 77 124)" stroke="#B785F4" stroke-opacity="0.45"/>
<line x1="214.5" y1="124" x2="214.5" y2="85" stroke="#B785F4"/>
<line y1="-0.5" x2="39" y2="-0.5" transform="matrix(-4.37114e-08 1 1 4.37114e-08 218 124)" stroke="#B785F4" stroke-opacity="0.45"/>
<line x1="356.5" y1="124" x2="356.5" y2="85" stroke="#B785F4"/>
<line y1="-0.5" x2="39" y2="-0.5" transform="matrix(-4.37114e-08 1 1 4.37114e-08 361 124)" stroke="#B785F4" stroke-opacity="0.45"/>
<line x1="66.5" y1="124" x2="66.5" y2="85" stroke="#B785F4"/>
<line y1="-0.5" x2="39" y2="-0.5" transform="matrix(-4.37114e-08 1 1 4.37114e-08 70 124)" stroke="#B785F4" stroke-opacity="0.45"/>
<line x1="208.5" y1="124" x2="208.5" y2="85" stroke="#B785F4"/>
<line y1="-0.5" x2="39" y2="-0.5" transform="matrix(-4.37114e-08 1 1 4.37114e-08 212 124)" stroke="#B785F4" stroke-opacity="0.45"/>
<line x1="350.5" y1="124" x2="350.5" y2="85" stroke="#B785F4"/>
<line y1="-0.5" x2="39" y2="-0.5" transform="matrix(-4.37114e-08 1 1 4.37114e-08 355 124)" stroke="#B785F4" stroke-opacity="0.45"/>
<line x1="78.5" y1="124" x2="78.5" y2="82" stroke="#B785F4"/>
<line y1="-0.5" x2="42" y2="-0.5" transform="matrix(-4.37114e-08 1 1 4.37114e-08 83 124)" stroke="#B785F4" stroke-opacity="0.45"/>
<line x1="221.5" y1="124" x2="221.5" y2="82" stroke="#B785F4"/>
<line y1="-0.5" x2="42" y2="-0.5" transform="matrix(-4.37114e-08 1 1 4.37114e-08 225 124)" stroke="#B785F4" stroke-opacity="0.45"/>
<line x1="363.5" y1="124" x2="363.5" y2="82" stroke="#B785F4"/>
<line y1="-0.5" x2="42" y2="-0.5" transform="matrix(-4.37114e-08 1 1 4.37114e-08 367 124)" stroke="#B785F4" stroke-opacity="0.45"/>
<line x1="90.5" y1="124" x2="90.5" y2="81" stroke="#B785F4"/>
<line y1="-0.5" x2="43" y2="-0.5" transform="matrix(-4.37114e-08 1 1 4.37114e-08 95 124)" stroke="#B785F4" stroke-opacity="0.45"/>
<line x1="233.5" y1="124" x2="233.5" y2="81" stroke="#B785F4"/>
<line y1="-0.5" x2="43" y2="-0.5" transform="matrix(-4.37114e-08 1 1 4.37114e-08 237 124)" stroke="#B785F4" stroke-opacity="0.45"/>
<line x1="375.5" y1="124" x2="375.5" y2="81" stroke="#B785F4"/>
<line y1="-0.5" x2="43" y2="-0.5" transform="matrix(-4.37114e-08 1 1 4.37114e-08 380 124)" stroke="#B785F4" stroke-opacity="0.45"/>
<line x1="35.5" y1="124" x2="35.5" y2="77" stroke="#B785F4"/>
<line y1="-0.5" x2="47" y2="-0.5" transform="matrix(-4.37114e-08 1 1 4.37114e-08 39 124)" stroke="#B785F4" stroke-opacity="0.45"/>
<line x1="177.5" y1="124" x2="177.5" y2="77" stroke="#B785F4"/>
<line y1="-0.5" x2="47" y2="-0.5" transform="matrix(-4.37114e-08 1 1 4.37114e-08 181 124)" stroke="#B785F4" stroke-opacity="0.45"/>
<line x1="320.5" y1="124" x2="320.5" y2="77" stroke="#B785F4"/>
<line y1="-0.5" x2="47" y2="-0.5" transform="matrix(-4.37114e-08 1 1 4.37114e-08 324 124)" stroke="#B785F4" stroke-opacity="0.45"/>
<line x1="47.5" y1="124" x2="47.5" y2="74" stroke="#B785F4"/>
<line y1="-0.5" x2="50" y2="-0.5" transform="matrix(-4.37114e-08 1 1 4.37114e-08 52 124)" stroke="#B785F4" stroke-opacity="0.45"/>
<line x1="190.5" y1="124" x2="190.5" y2="74" stroke="#B785F4"/>
<line y1="-0.5" x2="50" y2="-0.5" transform="matrix(-4.37114e-08 1 1 4.37114e-08 194 124)" stroke="#B785F4" stroke-opacity="0.45"/>
<line x1="332.5" y1="124" x2="332.5" y2="74" stroke="#B785F4"/>
<line y1="-0.5" x2="50" y2="-0.5" transform="matrix(-4.37114e-08 1 1 4.37114e-08 337 124)" stroke="#B785F4" stroke-opacity="0.45"/>
<line x1="53.5" y1="124" x2="53.5" y2="59" stroke="#B785F4"/>
<line y1="-0.5" x2="65" y2="-0.5" transform="matrix(-4.37114e-08 1 1 4.37114e-08 58 124)" stroke="#B785F4" stroke-opacity="0.45"/>
<line x1="196.5" y1="124" x2="196.5" y2="31" stroke="#B785F4"/>
<line y1="-0.5" x2="93" y2="-0.5" transform="matrix(-4.37114e-08 1 1 4.37114e-08 200 124)" stroke="#B785F4" stroke-opacity="0.45"/>
<line x1="338.5" y1="124" x2="338.5" y2="93" stroke="#B785F4"/>
<line y1="-0.5" x2="31" y2="-0.5" transform="matrix(-4.37114e-08 1 1 4.37114e-08 343 124)" stroke="#B785F4" stroke-opacity="0.45"/>
<line x1="84.5" y1="124" x2="84.5" y2="53" stroke="#B785F4"/>
<line y1="-0.5" x2="71" y2="-0.5" transform="matrix(-4.37114e-08 1 1 4.37114e-08 89 124)" stroke="#B785F4" stroke-opacity="0.45"/>
<line x1="227.5" y1="124" x2="227.5" y2="87" stroke="#B785F4"/>
<line y1="-0.5" x2="37" y2="-0.5" transform="matrix(-4.37114e-08 1 1 4.37114e-08 231 124)" stroke="#B785F4" stroke-opacity="0.45"/>
<line x1="369.5" y1="124" x2="369.5" y2="99" stroke="#B785F4"/>
<line y1="-0.5" x2="25" y2="-0.5" transform="matrix(-4.37114e-08 1 1 4.37114e-08 373 124)" stroke="#B785F4" stroke-opacity="0.45"/>
<line x1="97.5" y1="124" x2="97.5" y2="48" stroke="#B785F4"/>
<line y1="-0.5" x2="76" y2="-0.5" transform="matrix(-4.37114e-08 1 1 4.37114e-08 101 124)" stroke="#B785F4" stroke-opacity="0.45"/>
<line x1="239.5" y1="124" x2="239.5" y2="83" stroke="#B785F4"/>
<line y1="-0.5" x2="41" y2="-0.5" transform="matrix(-4.37114e-08 1 1 4.37114e-08 243 124)" stroke="#B785F4" stroke-opacity="0.45"/>
<line x1="381.5" y1="124" x2="381.5" y2="76" stroke="#B785F4"/>
<line y1="-0.5" x2="48" y2="-0.5" transform="matrix(-4.37114e-08 1 1 4.37114e-08 386 124)" stroke="#B785F4" stroke-opacity="0.45"/>
<line x1="109.5" y1="124" x2="109.5" y2="62" stroke="#B785F4"/>
<line y1="-0.5" x2="62" y2="-0.5" transform="matrix(-4.37114e-08 1 1 4.37114e-08 114 124)" stroke="#B785F4" stroke-opacity="0.45"/>
<line x1="252.5" y1="124" x2="252.5" y2="62" stroke="#B785F4"/>
<line y1="-0.5" x2="62" y2="-0.5" transform="matrix(-4.37114e-08 1 1 4.37114e-08 256 124)" stroke="#B785F4" stroke-opacity="0.45"/>
<line x1="394.5" y1="124" x2="394.5" y2="102" stroke="#B785F4"/>
<line x1="115.5" y1="124" x2="115.5" y2="74" stroke="#B785F4"/>
<line y1="-0.5" x2="50" y2="-0.5" transform="matrix(-4.37114e-08 1 1 4.37114e-08 120 124)" stroke="#B785F4" stroke-opacity="0.45"/>
<line x1="258.5" y1="124" x2="258.5" y2="74" stroke="#B785F4"/>
<line y1="-0.5" x2="50" y2="-0.5" transform="matrix(-4.37114e-08 1 1 4.37114e-08 262 124)" stroke="#B785F4" stroke-opacity="0.45"/>
<line x1="400.5" y1="124" x2="400.5" y2="74" stroke="#B785F4"/>
<line y1="-0.5" x2="50" y2="-0.5" transform="matrix(-4.37114e-08 1 1 4.37114e-08 404 124)" stroke="#B785F4" stroke-opacity="0.45"/>
<line x1="127.5" y1="124" x2="127.5" y2="79" stroke="#B785F4"/>
<line y1="-0.5" x2="45" y2="-0.5" transform="matrix(-4.37114e-08 1 1 4.37114e-08 132 124)" stroke="#B785F4" stroke-opacity="0.45"/>
<line x1="270.5" y1="124" x2="270.5" y2="79" stroke="#B785F4"/>
<line y1="-0.5" x2="45" y2="-0.5" transform="matrix(-4.37114e-08 1 1 4.37114e-08 274 124)" stroke="#B785F4" stroke-opacity="0.45"/>
<line x1="412.5" y1="124" x2="412.5" y2="79" stroke="#B785F4"/>
<line y1="-0.5" x2="45" y2="-0.5" transform="matrix(-4.37114e-08 1 1 4.37114e-08 417 124)" stroke="#B785F4" stroke-opacity="0.45"/>
<line x1="134.5" y1="124" x2="134.5" y2="66" stroke="#B785F4"/>
<line y1="-0.5" x2="58" y2="-0.5" transform="matrix(-4.37114e-08 1 1 4.37114e-08 138 124)" stroke="#B785F4" stroke-opacity="0.45"/>
<line x1="276.5" y1="124" x2="276.5" y2="66" stroke="#B785F4"/>
<line y1="-0.5" x2="58" y2="-0.5" transform="matrix(-4.37114e-08 1 1 4.37114e-08 281 124)" stroke="#B785F4" stroke-opacity="0.45"/>
<line x1="419.5" y1="124" x2="419.5" y2="66" stroke="#B785F4"/>
<line y1="-0.5" x2="58" y2="-0.5" transform="matrix(-4.37114e-08 1 1 4.37114e-08 423 124)" stroke="#B785F4" stroke-opacity="0.45"/>
<line x1="121.5" y1="124" x2="121.5" y2="46" stroke="#B785F4"/>
<line y1="-0.5" x2="78" y2="-0.5" transform="matrix(-4.37114e-08 1 1 4.37114e-08 126 124)" stroke="#B785F4" stroke-opacity="0.45"/>
<line x1="264.5" y1="124" x2="264.5" y2="74" stroke="#B785F4"/>
<line y1="-0.5" x2="50" y2="-0.5" transform="matrix(-4.37114e-08 1 1 4.37114e-08 268 124)" stroke="#B785F4" stroke-opacity="0.45"/>
<line x1="406.5" y1="124" x2="406.5" y2="74" stroke="#B785F4"/>
<line y1="-0.5" x2="50" y2="-0.5" transform="matrix(-4.37114e-08 1 1 4.37114e-08 410 124)" stroke="#B785F4" stroke-opacity="0.45"/>
<line x1="103.5" y1="124" x2="103.5" y2="39" stroke="#B785F4"/>
<line y1="-0.5" x2="85" y2="-0.5" transform="matrix(-4.37114e-08 1 1 4.37114e-08 107 124)" stroke="#B785F4" stroke-opacity="0.45"/>
<line x1="246.5" y1="124" x2="246.5" y2="79" stroke="#B785F4"/>
<line y1="-0.5" x2="45" y2="-0.5" transform="matrix(-4.37114e-08 1 1 4.37114e-08 250 124)" stroke="#B785F4" stroke-opacity="0.45"/>
<line x1="387.5" y1="124" x2="387.5" y2="94" stroke="#B785F4"/>
<line y1="-0.5" x2="30" y2="-0.5" transform="matrix(-4.37114e-08 1 1 4.37114e-08 392 124)" stroke="#B785F4" stroke-opacity="0.45"/>
<line y1="-0.5" x2="30" y2="-0.5" transform="matrix(-4.37114e-08 1 1 4.37114e-08 398 123)" stroke="#B785F4" stroke-opacity="0.45"/>
<line x1="11.5" y1="98" x2="11.5" y2="124" stroke="#B785F4"/>
<line y1="-0.5" x2="26" y2="-0.5" transform="matrix(-4.37112e-08 -1 -1 4.37112e-08 14 150)" stroke="#B785F4" stroke-opacity="0.45"/>
<line x1="153.5" y1="98" x2="153.5" y2="124" stroke="#B785F4"/>
<line y1="-0.5" x2="26" y2="-0.5" transform="matrix(-4.37112e-08 -1 -1 4.37112e-08 157 150)" stroke="#B785F4" stroke-opacity="0.45"/>
<line x1="296.5" y1="98" x2="296.5" y2="124" stroke="#B785F4"/>
<line y1="-0.5" x2="26" y2="-0.5" transform="matrix(-4.37112e-08 -1 -1 4.37112e-08 299 150)" stroke="#B785F4" stroke-opacity="0.45"/>
<line x1="438.5" y1="98" x2="438.5" y2="124" stroke="#B785F4"/>
<line x1="24.5" y1="98" x2="24.5" y2="124" stroke="#B785F4"/>
<line y1="-0.5" x2="26" y2="-0.5" transform="matrix(-4.37112e-08 -1 -1 4.37112e-08 27 150)" stroke="#B785F4" stroke-opacity="0.45"/>
<line x1="166.5" y1="98" x2="166.5" y2="124" stroke="#B785F4"/>
<line y1="-0.5" x2="26" y2="-0.5" transform="matrix(-4.37112e-08 -1 -1 4.37112e-08 169 150)" stroke="#B785F4" stroke-opacity="0.45"/>
<line x1="308.5" y1="98" x2="308.5" y2="124" stroke="#B785F4"/>
<line y1="-0.5" x2="26" y2="-0.5" transform="matrix(-4.37112e-08 -1 -1 4.37112e-08 312 150)" stroke="#B785F4" stroke-opacity="0.45"/>
<line x1="30.5" y1="98" x2="30.5" y2="124" stroke="#B785F4"/>
<line y1="-0.5" x2="26" y2="-0.5" transform="matrix(-4.37112e-08 -1 -1 4.37112e-08 33 150)" stroke="#B785F4" stroke-opacity="0.45"/>
<line x1="172.5" y1="98" x2="172.5" y2="124" stroke="#B785F4"/>
<line y1="-0.5" x2="26" y2="-0.5" transform="matrix(-4.37112e-08 -1 -1 4.37112e-08 175 150)" stroke="#B785F4" stroke-opacity="0.45"/>
<line x1="314.5" y1="98" x2="314.5" y2="124" stroke="#B785F4"/>
<line y1="-0.5" x2="26" y2="-0.5" transform="matrix(-4.37112e-08 -1 -1 4.37112e-08 318 150)" stroke="#B785F4" stroke-opacity="0.45"/>
<line x1="17.5" y1="90" x2="17.5" y2="124" stroke="#B785F4"/>
<line y1="-0.5" x2="34" y2="-0.5" transform="matrix(-4.37112e-08 -1 -1 4.37112e-08 21 158)" stroke="#B785F4" stroke-opacity="0.45"/>
<line x1="160.5" y1="90" x2="160.5" y2="124" stroke="#B785F4"/>
<line y1="-0.5" x2="34" y2="-0.5" transform="matrix(-4.37112e-08 -1 -1 4.37112e-08 163 158)" stroke="#B785F4" stroke-opacity="0.45"/>
<line x1="302.5" y1="90" x2="302.5" y2="124" stroke="#B785F4"/>
<line y1="-0.5" x2="34" y2="-0.5" transform="matrix(-4.37112e-08 -1 -1 4.37112e-08 305 158)" stroke="#B785F4" stroke-opacity="0.45"/>
</g>
<defs>
<clipPath id="clip0_705_42336">
<path d="M0 0H440V247.5H0V0Z" fill="white"/>
</clipPath>
</defs>
</svg>
