<svg width="440" height="248" viewBox="0 0 440 248" fill="none" xmlns="http://www.w3.org/2000/svg">
<path d="M0 0H440V247.5H0V0Z" fill="#1B152B"/>
<path opacity="0.6" d="M30.216 184L27.892 180.01H26.352V184H25.078V174.242H28.228C28.9653 174.242 29.586 174.368 30.09 174.62C30.6033 174.872 30.986 175.213 31.238 175.642C31.49 176.071 31.616 176.561 31.616 177.112C31.616 177.784 31.42 178.377 31.028 178.89C30.6453 179.403 30.0667 179.744 29.292 179.912L31.742 184H30.216ZM26.352 178.988H28.228C28.9187 178.988 29.4367 178.82 29.782 178.484C30.1273 178.139 30.3 177.681 30.3 177.112C30.3 176.533 30.1273 176.085 29.782 175.768C29.446 175.451 28.928 175.292 28.228 175.292H26.352V178.988ZM34.8696 174.242V184H33.5956V174.242H34.8696ZM40.1349 184.098C39.4909 184.098 38.9122 183.986 38.3989 183.762C37.8949 183.529 37.4982 183.211 37.2089 182.81C36.9196 182.399 36.7702 181.928 36.7609 181.396H38.1189C38.1656 181.853 38.3522 182.241 38.6789 182.558C39.0149 182.866 39.5002 183.02 40.1349 183.02C40.7416 183.02 41.2176 182.871 41.5629 182.572C41.9176 182.264 42.0949 181.872 42.0949 181.396C42.0949 181.023 41.9922 180.719 41.7869 180.486C41.5816 180.253 41.3249 180.075 41.0169 179.954C40.7089 179.833 40.2936 179.702 39.7709 179.562C39.1269 179.394 38.6089 179.226 38.2169 179.058C37.8342 178.89 37.5029 178.629 37.2229 178.274C36.9522 177.91 36.8169 177.425 36.8169 176.818C36.8169 176.286 36.9522 175.815 37.2229 175.404C37.4936 174.993 37.8716 174.676 38.3569 174.452C38.8516 174.228 39.4162 174.116 40.0509 174.116C40.9656 174.116 41.7122 174.345 42.2909 174.802C42.8789 175.259 43.2102 175.866 43.2849 176.622H41.8849C41.8382 176.249 41.6422 175.922 41.2969 175.642C40.9516 175.353 40.4942 175.208 39.9249 175.208C39.3929 175.208 38.9589 175.348 38.6229 175.628C38.2869 175.899 38.1189 176.281 38.1189 176.776C38.1189 177.131 38.2169 177.42 38.4129 177.644C38.6182 177.868 38.8656 178.041 39.1549 178.162C39.4536 178.274 39.8689 178.405 40.4009 178.554C41.0449 178.731 41.5629 178.909 41.9549 179.086C42.3469 179.254 42.6829 179.52 42.9629 179.884C43.2429 180.239 43.3829 180.724 43.3829 181.34C43.3829 181.816 43.2569 182.264 43.0049 182.684C42.7529 183.104 42.3796 183.445 41.8849 183.706C41.3902 183.967 40.8069 184.098 40.1349 184.098ZM50.5497 184L46.5317 179.548V184H45.2577V174.242H46.5317V178.764L50.5637 174.242H52.1737L47.7497 179.128L52.2157 184H50.5497ZM60.465 184.098C59.821 184.098 59.2423 183.986 58.729 183.762C58.225 183.529 57.8283 183.211 57.539 182.81C57.2496 182.399 57.1003 181.928 57.091 181.396H58.449C58.4956 181.853 58.6823 182.241 59.009 182.558C59.345 182.866 59.8303 183.02 60.465 183.02C61.0716 183.02 61.5476 182.871 61.893 182.572C62.2476 182.264 62.425 181.872 62.425 181.396C62.425 181.023 62.3223 180.719 62.117 180.486C61.9116 180.253 61.655 180.075 61.347 179.954C61.039 179.833 60.6236 179.702 60.101 179.562C59.457 179.394 58.939 179.226 58.547 179.058C58.1643 178.89 57.833 178.629 57.553 178.274C57.2823 177.91 57.147 177.425 57.147 176.818C57.147 176.286 57.2823 175.815 57.553 175.404C57.8236 174.993 58.2016 174.676 58.687 174.452C59.1816 174.228 59.7463 174.116 60.381 174.116C61.2956 174.116 62.0423 174.345 62.621 174.802C63.209 175.259 63.5403 175.866 63.615 176.622H62.215C62.1683 176.249 61.9723 175.922 61.627 175.642C61.2816 175.353 60.8243 175.208 60.255 175.208C59.723 175.208 59.289 175.348 58.953 175.628C58.617 175.899 58.449 176.281 58.449 176.776C58.449 177.131 58.547 177.42 58.743 177.644C58.9483 177.868 59.1956 178.041 59.485 178.162C59.7836 178.274 60.199 178.405 60.731 178.554C61.375 178.731 61.893 178.909 62.285 179.086C62.677 179.254 63.013 179.52 63.293 179.884C63.573 180.239 63.713 180.724 63.713 181.34C63.713 181.816 63.587 182.264 63.335 182.684C63.083 183.104 62.7096 183.445 62.215 183.706C61.7203 183.967 61.137 184.098 60.465 184.098ZM65.1118 179.114C65.1118 178.162 65.3264 177.308 65.7558 176.552C66.1851 175.787 66.7684 175.189 67.5058 174.76C68.2524 174.331 69.0784 174.116 69.9838 174.116C71.0478 174.116 71.9764 174.373 72.7698 174.886C73.5631 175.399 74.1418 176.127 74.5058 177.07H72.9798C72.7091 176.482 72.3171 176.029 71.8038 175.712C71.2998 175.395 70.6931 175.236 69.9838 175.236C69.3024 175.236 68.6911 175.395 68.1498 175.712C67.6084 176.029 67.1838 176.482 66.8758 177.07C66.5678 177.649 66.4138 178.33 66.4138 179.114C66.4138 179.889 66.5678 180.57 66.8758 181.158C67.1838 181.737 67.6084 182.185 68.1498 182.502C68.6911 182.819 69.3024 182.978 69.9838 182.978C70.6931 182.978 71.2998 182.824 71.8038 182.516C72.3171 182.199 72.7091 181.746 72.9798 181.158H74.5058C74.1418 182.091 73.5631 182.815 72.7698 183.328C71.9764 183.832 71.0478 184.084 69.9838 184.084C69.0784 184.084 68.2524 183.874 67.5058 183.454C66.7684 183.025 66.1851 182.432 65.7558 181.676C65.3264 180.92 65.1118 180.066 65.1118 179.114ZM80.8262 184.098C79.9209 184.098 79.0949 183.888 78.3482 183.468C77.6016 183.039 77.0089 182.446 76.5702 181.69C76.1409 180.925 75.9262 180.066 75.9262 179.114C75.9262 178.162 76.1409 177.308 76.5702 176.552C77.0089 175.787 77.6016 175.194 78.3482 174.774C79.0949 174.345 79.9209 174.13 80.8262 174.13C81.7409 174.13 82.5716 174.345 83.3182 174.774C84.0649 175.194 84.6529 175.782 85.0822 176.538C85.5116 177.294 85.7262 178.153 85.7262 179.114C85.7262 180.075 85.5116 180.934 85.0822 181.69C84.6529 182.446 84.0649 183.039 83.3182 183.468C82.5716 183.888 81.7409 184.098 80.8262 184.098ZM80.8262 182.992C81.5076 182.992 82.1189 182.833 82.6602 182.516C83.2109 182.199 83.6402 181.746 83.9482 181.158C84.2656 180.57 84.4242 179.889 84.4242 179.114C84.4242 178.33 84.2656 177.649 83.9482 177.07C83.6402 176.482 83.2156 176.029 82.6742 175.712C82.1329 175.395 81.5169 175.236 80.8262 175.236C80.1356 175.236 79.5196 175.395 78.9782 175.712C78.4369 176.029 78.0076 176.482 77.6902 177.07C77.3822 177.649 77.2282 178.33 77.2282 179.114C77.2282 179.889 77.3822 180.57 77.6902 181.158C78.0076 181.746 78.4369 182.199 78.9782 182.516C79.5289 182.833 80.1449 182.992 80.8262 182.992ZM92.5461 184L90.2221 180.01H88.6821V184H87.4081V174.242H90.5581C91.2954 174.242 91.9161 174.368 92.4201 174.62C92.9334 174.872 93.3161 175.213 93.5681 175.642C93.8201 176.071 93.9461 176.561 93.9461 177.112C93.9461 177.784 93.7501 178.377 93.3581 178.89C92.9754 179.403 92.3967 179.744 91.6221 179.912L94.0721 184H92.5461ZM88.6821 178.988H90.5581C91.2487 178.988 91.7667 178.82 92.1121 178.484C92.4574 178.139 92.6301 177.681 92.6301 177.112C92.6301 176.533 92.4574 176.085 92.1121 175.768C91.7761 175.451 91.2581 175.292 90.5581 175.292H88.6821V178.988ZM97.1997 175.278V178.54H100.756V179.59H97.1997V182.95H101.176V184H95.9257V174.228H101.176V175.278H97.1997ZM103.509 184.084C103.267 184.084 103.061 184 102.893 183.832C102.725 183.664 102.641 183.459 102.641 183.216C102.641 182.973 102.725 182.768 102.893 182.6C103.061 182.432 103.267 182.348 103.509 182.348C103.743 182.348 103.939 182.432 104.097 182.6C104.265 182.768 104.349 182.973 104.349 183.216C104.349 183.459 104.265 183.664 104.097 183.832C103.939 184 103.743 184.084 103.509 184.084ZM103.509 178.092C103.267 178.092 103.061 178.008 102.893 177.84C102.725 177.672 102.641 177.467 102.641 177.224C102.641 176.981 102.725 176.776 102.893 176.608C103.061 176.44 103.267 176.356 103.509 176.356C103.743 176.356 103.939 176.44 104.097 176.608C104.265 176.776 104.349 176.981 104.349 177.224C104.349 177.467 104.265 177.672 104.097 177.84C103.939 178.008 103.743 178.092 103.509 178.092Z" fill="#B785F4"/>
<path opacity="0.6" d="M174.204 199.908C171.72 199.908 169.92 200.88 169.236 202.212H168.84L169.308 195.156H180.324V191.448H165.708L164.988 205.056L167.688 205.74C168.768 204.48 170.424 203.472 172.98 203.472H173.124C176.508 203.472 177.408 205.524 177.408 207.936V208.188C177.408 211.392 176.184 212.724 173.016 212.724H172.8C169.488 212.724 168.372 211.392 168.372 208.404H164.412C164.412 213.372 167.58 216.36 172.8 216.36H172.98C178.236 216.36 181.368 213.66 181.368 208.116V207.9C181.368 202.032 178.308 199.908 174.348 199.908H174.204ZM194.962 191.448H190.966V195.552C190.966 196.74 190.678 197.064 189.418 197.064H185.278V200.772H187.474C189.202 200.772 190.174 200.016 190.57 198.828H190.966V212.292H184.882V216H201.01V212.292H194.962V191.448ZM215.828 216V210.636H210.356V216H215.828ZM234.642 199.908C232.158 199.908 230.358 200.88 229.674 202.212H229.278L229.746 195.156H240.762V191.448H226.146L225.426 205.056L228.126 205.74C229.206 204.48 230.862 203.472 233.418 203.472H233.562C236.946 203.472 237.846 205.524 237.846 207.936V208.188C237.846 211.392 236.622 212.724 233.454 212.724H233.238C229.926 212.724 228.81 211.392 228.81 208.404H224.85C224.85 213.372 228.018 216.36 233.238 216.36H233.418C238.674 216.36 241.806 213.66 241.806 208.116V207.9C241.806 202.032 238.746 199.908 234.786 199.908H234.642ZM253.6 216.36C258.964 216.36 262.204 213.732 262.204 209.124C262.204 205.92 260.548 204.192 257.812 203.616V203.184C260.044 202.356 261.34 200.7 261.34 197.928C261.34 193.86 258.424 191.088 253.528 191.088C248.416 191.088 245.392 194.076 245.392 199.368H249.352C249.352 195.984 250.324 194.688 253.528 194.688C256.192 194.688 257.344 195.804 257.344 198.18C257.344 200.772 256.228 201.708 253.528 201.708H251.224V205.38H254.608C257.308 205.38 258.208 206.28 258.208 208.764C258.208 211.608 256.84 212.76 253.564 212.76C249.964 212.76 248.812 211.464 248.812 207.792H244.816C244.816 213.372 248.056 216.36 253.6 216.36ZM269.21 201.78C272.198 201.78 274.574 199.404 274.574 196.38C274.574 193.5 272.198 191.088 269.21 191.088C266.258 191.088 263.918 193.5 263.918 196.38C263.918 199.368 266.186 201.78 269.21 201.78ZM278.498 201.168L283.178 191.448H280.046L275.762 200.808V201.168H278.498ZM269.21 199.08C267.698 199.08 266.582 197.892 266.582 196.416C266.582 194.976 267.734 193.788 269.21 193.788C270.722 193.788 271.874 194.976 271.874 196.416C271.874 197.928 270.722 199.08 269.21 199.08ZM277.814 216.36C280.802 216.36 283.142 213.948 283.142 210.996C283.142 208.044 280.802 205.668 277.814 205.668C274.862 205.668 272.486 208.044 272.486 210.996C272.486 213.912 274.79 216.36 277.814 216.36ZM266.906 216L271.118 206.64V206.28H268.418L263.738 216H266.906ZM277.814 213.66C276.302 213.66 275.186 212.472 275.186 210.996C275.186 209.52 276.338 208.368 277.814 208.368C279.326 208.368 280.478 209.52 280.478 210.996C280.478 212.472 279.326 213.66 277.814 213.66Z" fill="#B785F4"/>
<circle cx="338" cy="179" r="5" fill="#B785F4"/>
<path opacity="0.6" d="M351.968 182.148H354.968V183H350.876V174.54H351.968V182.148ZM359.067 176.328C359.699 176.328 360.263 176.464 360.759 176.736C361.263 177.008 361.655 177.4 361.935 177.912C362.223 178.424 362.367 179.024 362.367 179.712C362.367 180.4 362.223 181 361.935 181.512C361.655 182.016 361.263 182.404 360.759 182.676C360.263 182.948 359.699 183.084 359.067 183.084C358.435 183.084 357.867 182.948 357.363 182.676C356.867 182.404 356.475 182.016 356.187 181.512C355.899 181 355.755 180.4 355.755 179.712C355.755 179.024 355.899 178.424 356.187 177.912C356.475 177.4 356.867 177.008 357.363 176.736C357.867 176.464 358.435 176.328 359.067 176.328ZM359.067 177.288C358.675 177.288 358.311 177.376 357.975 177.552C357.647 177.728 357.379 178 357.171 178.368C356.971 178.728 356.871 179.176 356.871 179.712C356.871 180.24 356.971 180.688 357.171 181.056C357.379 181.416 357.647 181.684 357.975 181.86C358.311 182.036 358.675 182.124 359.067 182.124C359.459 182.124 359.819 182.036 360.147 181.86C360.483 181.684 360.751 181.416 360.951 181.056C361.159 180.688 361.263 180.24 361.263 179.712C361.263 179.176 361.159 178.728 360.951 178.368C360.751 178 360.483 177.728 360.147 177.552C359.819 177.376 359.459 177.288 359.067 177.288ZM372.838 176.412L370.942 183H369.766L367.954 177.636L366.13 183H364.942L363.07 176.412H364.174L365.578 181.956L367.402 176.412H368.542L370.378 181.944L371.794 176.412H372.838Z" fill="#B785F4"/>
<circle cx="338" cy="194" r="5" fill="#B785F4" fill-opacity="0.15"/>
<path opacity="0.6" d="M359.348 189.684V198H358.256V191.364L355.604 198H354.632L351.968 191.388V198H350.876V189.684H352.184L355.136 196.668L358.04 189.684H359.348ZM364.083 191.328C364.715 191.328 365.279 191.464 365.775 191.736C366.279 192.008 366.671 192.4 366.951 192.912C367.239 193.424 367.383 194.024 367.383 194.712C367.383 195.4 367.239 196 366.951 196.512C366.671 197.016 366.279 197.404 365.775 197.676C365.279 197.948 364.715 198.084 364.083 198.084C363.451 198.084 362.883 197.948 362.379 197.676C361.883 197.404 361.491 197.016 361.203 196.512C360.915 196 360.771 195.4 360.771 194.712C360.771 194.024 360.915 193.424 361.203 192.912C361.491 192.4 361.883 192.008 362.379 191.736C362.883 191.464 363.451 191.328 364.083 191.328ZM364.083 192.288C363.691 192.288 363.327 192.376 362.991 192.552C362.663 192.728 362.395 193 362.187 193.368C361.987 193.728 361.887 194.176 361.887 194.712C361.887 195.24 361.987 195.688 362.187 196.056C362.395 196.416 362.663 196.684 362.991 196.86C363.327 197.036 363.691 197.124 364.083 197.124C364.475 197.124 364.835 197.036 365.163 196.86C365.499 196.684 365.767 196.416 365.967 196.056C366.175 195.688 366.279 195.24 366.279 194.712C366.279 194.176 366.175 193.728 365.967 193.368C365.767 193 365.499 192.728 365.163 192.552C364.835 192.376 364.475 192.288 364.083 192.288ZM371.506 191.328C372.146 191.328 372.686 191.488 373.126 191.808C373.574 192.128 373.886 192.556 374.062 193.092V189.12H375.154V198H374.062V196.32C373.886 196.856 373.574 197.284 373.126 197.604C372.686 197.924 372.146 198.084 371.506 198.084C370.922 198.084 370.402 197.948 369.946 197.676C369.49 197.404 369.13 197.016 368.866 196.512C368.61 196 368.482 195.4 368.482 194.712C368.482 194.024 368.61 193.424 368.866 192.912C369.13 192.4 369.49 192.008 369.946 191.736C370.402 191.464 370.922 191.328 371.506 191.328ZM371.818 192.3C371.146 192.3 370.606 192.516 370.198 192.948C369.798 193.372 369.598 193.96 369.598 194.712C369.598 195.464 369.798 196.056 370.198 196.488C370.606 196.912 371.146 197.124 371.818 197.124C372.25 197.124 372.634 197.024 372.97 196.824C373.314 196.624 373.582 196.344 373.774 195.984C373.966 195.616 374.062 195.192 374.062 194.712C374.062 194.232 373.966 193.808 373.774 193.44C373.582 193.072 373.314 192.792 372.97 192.6C372.634 192.4 372.25 192.3 371.818 192.3ZM382.952 194.34C382.952 194.572 382.936 194.772 382.904 194.94H377.636C377.66 195.692 377.872 196.256 378.272 196.632C378.68 197.008 379.176 197.196 379.76 197.196C380.288 197.196 380.728 197.064 381.08 196.8C381.44 196.528 381.66 196.168 381.74 195.72H382.904C382.824 196.176 382.644 196.584 382.364 196.944C382.092 197.304 381.736 197.584 381.296 197.784C380.856 197.984 380.36 198.084 379.808 198.084C379.176 198.084 378.616 197.948 378.128 197.676C377.64 197.404 377.256 197.016 376.976 196.512C376.704 196 376.568 195.4 376.568 194.712C376.568 194.024 376.704 193.424 376.976 192.912C377.256 192.4 377.64 192.008 378.128 191.736C378.616 191.464 379.176 191.328 379.808 191.328C380.448 191.328 381.004 191.464 381.476 191.736C381.956 192.008 382.32 192.372 382.568 192.828C382.824 193.284 382.952 193.788 382.952 194.34ZM381.848 194.412C381.872 193.924 381.792 193.516 381.608 193.188C381.424 192.86 381.172 192.616 380.852 192.456C380.532 192.296 380.184 192.216 379.808 192.216C379.208 192.216 378.704 192.404 378.296 192.78C377.888 193.148 377.668 193.692 377.636 194.412H381.848ZM385.472 192.744C385.688 192.288 386.004 191.936 386.42 191.688C386.836 191.432 387.332 191.304 387.908 191.304V192.492H387.572C386.956 192.492 386.452 192.652 386.06 192.972C385.668 193.284 385.472 193.804 385.472 194.532V198H384.38V191.412H385.472V192.744ZM391.685 191.328C392.325 191.328 392.865 191.488 393.305 191.808C393.753 192.128 394.065 192.556 394.241 193.092V191.412H395.333V198H394.241V196.32C394.065 196.856 393.753 197.284 393.305 197.604C392.865 197.924 392.325 198.084 391.685 198.084C391.101 198.084 390.581 197.948 390.125 197.676C389.669 197.404 389.309 197.016 389.045 196.512C388.789 196 388.661 195.4 388.661 194.712C388.661 194.024 388.789 193.424 389.045 192.912C389.309 192.4 389.669 192.008 390.125 191.736C390.581 191.464 391.101 191.328 391.685 191.328ZM391.997 192.3C391.325 192.3 390.785 192.516 390.377 192.948C389.977 193.372 389.777 193.96 389.777 194.712C389.777 195.464 389.977 196.056 390.377 196.488C390.785 196.912 391.325 197.124 391.997 197.124C392.429 197.124 392.813 197.024 393.149 196.824C393.493 196.624 393.761 196.344 393.953 195.984C394.145 195.616 394.241 195.192 394.241 194.712C394.241 194.232 394.145 193.808 393.953 193.44C393.761 193.072 393.493 192.792 393.149 192.6C392.813 192.4 392.429 192.3 391.997 192.3ZM400.215 197.04V198H399.399C398.727 198 398.223 197.84 397.887 197.52C397.559 197.2 397.395 196.664 397.395 195.912V192.36H396.411V191.412H397.395V189.768H398.499V191.412H400.203V192.36H398.499V195.936C398.499 196.36 398.575 196.652 398.727 196.812C398.887 196.964 399.159 197.04 399.543 197.04H400.215ZM407.608 194.34C407.608 194.572 407.592 194.772 407.56 194.94H402.292C402.316 195.692 402.528 196.256 402.928 196.632C403.336 197.008 403.832 197.196 404.416 197.196C404.944 197.196 405.384 197.064 405.736 196.8C406.096 196.528 406.316 196.168 406.396 195.72H407.56C407.48 196.176 407.3 196.584 407.02 196.944C406.748 197.304 406.392 197.584 405.952 197.784C405.512 197.984 405.016 198.084 404.464 198.084C403.832 198.084 403.272 197.948 402.784 197.676C402.296 197.404 401.912 197.016 401.632 196.512C401.36 196 401.224 195.4 401.224 194.712C401.224 194.024 401.36 193.424 401.632 192.912C401.912 192.4 402.296 192.008 402.784 191.736C403.272 191.464 403.832 191.328 404.464 191.328C405.104 191.328 405.66 191.464 406.132 191.736C406.612 192.008 406.976 192.372 407.224 192.828C407.48 193.284 407.608 193.788 407.608 194.34ZM406.504 194.412C406.528 193.924 406.448 193.516 406.264 193.188C406.08 192.86 405.828 192.616 405.508 192.456C405.188 192.296 404.84 192.216 404.464 192.216C403.864 192.216 403.36 192.404 402.952 192.78C402.544 193.148 402.324 193.692 402.292 194.412H406.504Z" fill="#B785F4"/>
<circle cx="338" cy="209" r="5" fill="#B785F4"/>
<path opacity="0.6" d="M357.368 204.54V213H356.264V209.088H351.968V213H350.876V204.54H351.968V208.2H356.264V204.54H357.368ZM358.922 204.48C358.922 204.28 358.99 204.12 359.126 204C359.262 203.872 359.442 203.808 359.666 203.808C359.89 203.808 360.07 203.872 360.206 204C360.342 204.12 360.41 204.28 360.41 204.48C360.41 204.68 360.342 204.844 360.206 204.972C360.07 205.092 359.89 205.152 359.666 205.152C359.442 205.152 359.262 205.092 359.126 204.972C358.99 204.844 358.922 204.68 358.922 204.48ZM360.206 206.412V213H359.114V206.412H360.206ZM364.662 206.328C365.302 206.328 365.842 206.488 366.282 206.808C366.73 207.128 367.042 207.556 367.218 208.092V206.412H368.31V213.108C368.31 213.716 368.182 214.256 367.926 214.728C367.67 215.2 367.31 215.568 366.846 215.832C366.382 216.096 365.842 216.228 365.226 216.228C364.338 216.228 363.614 216.012 363.054 215.58C362.494 215.156 362.138 214.58 361.986 213.852H363.066C363.194 214.292 363.434 214.636 363.786 214.884C364.146 215.14 364.606 215.268 365.166 215.268C365.758 215.268 366.246 215.076 366.63 214.692C367.022 214.316 367.218 213.788 367.218 213.108V211.32C367.042 211.856 366.73 212.284 366.282 212.604C365.842 212.924 365.302 213.084 364.662 213.084C364.078 213.084 363.558 212.948 363.102 212.676C362.646 212.404 362.286 212.016 362.022 211.512C361.766 211 361.638 210.4 361.638 209.712C361.638 209.024 361.766 208.424 362.022 207.912C362.286 207.4 362.646 207.008 363.102 206.736C363.558 206.464 364.078 206.328 364.662 206.328ZM364.974 207.3C364.302 207.3 363.762 207.516 363.354 207.948C362.954 208.372 362.754 208.96 362.754 209.712C362.754 210.464 362.954 211.056 363.354 211.488C363.762 211.912 364.302 212.124 364.974 212.124C365.406 212.124 365.79 212.024 366.126 211.824C366.47 211.624 366.738 211.344 366.93 210.984C367.122 210.616 367.218 210.192 367.218 209.712C367.218 209.232 367.122 208.808 366.93 208.44C366.738 208.072 366.47 207.792 366.126 207.6C365.79 207.4 365.406 207.3 364.974 207.3ZM373.516 206.304C374.284 206.304 374.904 206.552 375.376 207.048C375.848 207.536 376.084 208.244 376.084 209.172V213H374.992V209.268C374.992 208.612 374.824 208.108 374.488 207.756C374.152 207.404 373.696 207.228 373.12 207.228C372.52 207.228 372.04 207.424 371.68 207.816C371.32 208.2 371.14 208.764 371.14 209.508V213H370.048V204.12H371.14V207.972C371.308 207.436 371.604 207.024 372.028 206.736C372.46 206.448 372.956 206.304 373.516 206.304Z" fill="#B785F4"/>
<circle cx="338" cy="224" r="5" fill="#B785F4" fill-opacity="0.4"/>
<path opacity="0.6" d="M351.428 219.54L354.008 226.788L356.624 219.54H357.812L354.704 228H353.324L350.228 219.54H351.428ZM364.975 224.34C364.975 224.572 364.959 224.772 364.927 224.94H359.659C359.683 225.692 359.895 226.256 360.295 226.632C360.703 227.008 361.199 227.196 361.783 227.196C362.311 227.196 362.751 227.064 363.103 226.8C363.463 226.528 363.683 226.168 363.763 225.72H364.927C364.847 226.176 364.667 226.584 364.387 226.944C364.115 227.304 363.759 227.584 363.319 227.784C362.879 227.984 362.383 228.084 361.831 228.084C361.199 228.084 360.639 227.948 360.151 227.676C359.663 227.404 359.279 227.016 358.999 226.512C358.727 226 358.591 225.4 358.591 224.712C358.591 224.024 358.727 223.424 358.999 222.912C359.279 222.4 359.663 222.008 360.151 221.736C360.639 221.464 361.199 221.328 361.831 221.328C362.471 221.328 363.027 221.464 363.499 221.736C363.979 222.008 364.343 222.372 364.591 222.828C364.847 223.284 364.975 223.788 364.975 224.34ZM363.871 224.412C363.895 223.924 363.815 223.516 363.631 223.188C363.447 222.86 363.195 222.616 362.875 222.456C362.555 222.296 362.207 222.216 361.831 222.216C361.231 222.216 360.727 222.404 360.319 222.78C359.911 223.148 359.691 223.692 359.659 224.412H363.871ZM367.495 222.744C367.711 222.288 368.027 221.936 368.443 221.688C368.859 221.432 369.355 221.304 369.931 221.304V222.492H369.595C368.979 222.492 368.475 222.652 368.083 222.972C367.691 223.284 367.495 223.804 367.495 224.532V228H366.403V221.412H367.495V222.744ZM371.465 221.412L373.601 226.596L375.581 221.412H376.793L372.881 231.12H371.645L373.013 227.892L370.241 221.412H371.465ZM387.251 219.54V228H386.147V224.088H381.851V228H380.759V219.54H381.851V223.2H386.147V219.54H387.251ZM388.805 219.48C388.805 219.28 388.873 219.12 389.009 219C389.145 218.872 389.325 218.808 389.549 218.808C389.773 218.808 389.953 218.872 390.089 219C390.225 219.12 390.293 219.28 390.293 219.48C390.293 219.68 390.225 219.844 390.089 219.972C389.953 220.092 389.773 220.152 389.549 220.152C389.325 220.152 389.145 220.092 389.009 219.972C388.873 219.844 388.805 219.68 388.805 219.48ZM390.089 221.412V228H388.997V221.412H390.089ZM394.545 221.328C395.185 221.328 395.725 221.488 396.165 221.808C396.613 222.128 396.925 222.556 397.101 223.092V221.412H398.193V228.108C398.193 228.716 398.065 229.256 397.809 229.728C397.553 230.2 397.193 230.568 396.729 230.832C396.265 231.096 395.725 231.228 395.109 231.228C394.221 231.228 393.497 231.012 392.937 230.58C392.377 230.156 392.021 229.58 391.869 228.852H392.949C393.077 229.292 393.317 229.636 393.669 229.884C394.029 230.14 394.489 230.268 395.049 230.268C395.641 230.268 396.129 230.076 396.513 229.692C396.905 229.316 397.101 228.788 397.101 228.108V226.32C396.925 226.856 396.613 227.284 396.165 227.604C395.725 227.924 395.185 228.084 394.545 228.084C393.961 228.084 393.441 227.948 392.985 227.676C392.529 227.404 392.169 227.016 391.905 226.512C391.649 226 391.521 225.4 391.521 224.712C391.521 224.024 391.649 223.424 391.905 222.912C392.169 222.4 392.529 222.008 392.985 221.736C393.441 221.464 393.961 221.328 394.545 221.328ZM394.857 222.3C394.185 222.3 393.645 222.516 393.237 222.948C392.837 223.372 392.637 223.96 392.637 224.712C392.637 225.464 392.837 226.056 393.237 226.488C393.645 226.912 394.185 227.124 394.857 227.124C395.289 227.124 395.673 227.024 396.009 226.824C396.353 226.624 396.621 226.344 396.813 225.984C397.005 225.616 397.101 225.192 397.101 224.712C397.101 224.232 397.005 223.808 396.813 223.44C396.621 223.072 396.353 222.792 396.009 222.6C395.673 222.4 395.289 222.3 394.857 222.3ZM403.399 221.304C404.167 221.304 404.787 221.552 405.259 222.048C405.731 222.536 405.967 223.244 405.967 224.172V228H404.875V224.268C404.875 223.612 404.707 223.108 404.371 222.756C404.035 222.404 403.579 222.228 403.003 222.228C402.403 222.228 401.923 222.424 401.563 222.816C401.203 223.2 401.023 223.764 401.023 224.508V228H399.931V219.12H401.023V222.972C401.191 222.436 401.487 222.024 401.911 221.736C402.343 221.448 402.839 221.304 403.399 221.304Z" fill="#B785F4"/>
<mask id="path-12-inside-1_705_42533" fill="white">
<path d="M131.018 133.933C126.423 134.319 122.345 130.911 122.339 126.3C122.326 115.386 124.146 104.525 127.746 94.1602C132.26 81.1591 139.474 69.2223 148.931 59.1068C158.387 48.9913 169.88 40.9178 182.679 35.3985C195.478 29.8791 209.305 27.0343 223.283 27.0444C237.261 27.0545 251.084 29.9194 263.877 35.4573C276.669 40.9952 288.151 49.0853 297.595 59.2145C307.039 69.3437 314.238 81.2909 318.736 94.2985C322.322 104.668 324.129 115.531 324.102 126.444C324.091 131.056 320.007 134.459 315.412 134.067V134.067C310.799 133.673 307.427 129.601 307.357 124.971C307.226 116.351 305.725 107.785 302.89 99.5899C299.139 88.7402 293.134 78.775 285.257 70.3261C277.38 61.8773 267.802 55.1293 257.132 50.5101C246.462 45.8909 234.932 43.5013 223.273 43.4929C211.614 43.4844 200.081 45.8573 189.405 50.4611C178.729 55.0648 169.143 61.7989 161.255 70.2363C153.367 78.6737 147.35 88.6303 143.584 99.4745C140.74 107.666 139.228 116.228 139.086 124.848C139.01 129.478 135.632 133.546 131.018 133.933V133.933Z"/>
</mask>
<path d="M131.018 133.933C126.423 134.319 122.345 130.911 122.339 126.3C122.326 115.386 124.146 104.525 127.746 94.1602C132.26 81.1591 139.474 69.2223 148.931 59.1068C158.387 48.9913 169.88 40.9178 182.679 35.3985C195.478 29.8791 209.305 27.0343 223.283 27.0444C237.261 27.0545 251.084 29.9194 263.877 35.4573C276.669 40.9952 288.151 49.0853 297.595 59.2145C307.039 69.3437 314.238 81.2909 318.736 94.2985C322.322 104.668 324.129 115.531 324.102 126.444C324.091 131.056 320.007 134.459 315.412 134.067V134.067C310.799 133.673 307.427 129.601 307.357 124.971C307.226 116.351 305.725 107.785 302.89 99.5899C299.139 88.7402 293.134 78.775 285.257 70.3261C277.38 61.8773 267.802 55.1293 257.132 50.5101C246.462 45.8909 234.932 43.5013 223.273 43.4929C211.614 43.4844 200.081 45.8573 189.405 50.4611C178.729 55.0648 169.143 61.7989 161.255 70.2363C153.367 78.6737 147.35 88.6303 143.584 99.4745C140.74 107.666 139.228 116.228 139.086 124.848C139.01 129.478 135.632 133.546 131.018 133.933V133.933Z" stroke="#B785F4" stroke-width="2" mask="url(#path-12-inside-1_705_42533)"/>
<circle cx="229" cy="35" r="9.5" fill="#B785F4" stroke="#1B152B"/>
<path d="M242.5 134.5C242.858 126.973 235.214 112.193 230.144 103.686C229.139 101.999 227.309 101 225.346 101C223.554 101 221.86 101.835 220.816 103.292C214.856 111.617 205.5 126.778 205.5 135.5C205.5 147.5 215 152.5 225 152.5C235 152.5 242 145 242.5 134.5Z" fill="#B785F4"/>
<circle cx="223.5" cy="134.5" r="6.5" fill="#1B152B"/>
</svg>
