<svg width="300" height="32" viewBox="0 0 300 32" fill="none" xmlns="http://www.w3.org/2000/svg">
<path d="M135.055 4.97233V27.1072H145.962C149.01 27.1072 150.774 26.626 152.057 25.5032C153.661 24.0597 154.463 21.4933 154.463 16.0398C154.463 10.5863 153.661 8.01989 152.057 6.57631C150.774 5.45352 149.01 4.97233 145.962 4.97233H135.055ZM149.972 16.0398C149.972 20.8517 149.651 21.9745 148.689 22.6161C148.047 23.0973 147.245 23.2577 145.641 23.2577H139.546V8.66148H145.641C147.245 8.66148 148.047 8.66148 148.689 9.30307C149.651 10.1051 149.972 11.2278 149.972 16.0398ZM160.077 32H128.077V0H160.077V32ZM101.933 8.66148V4.97233H120.86V12.0298H116.849V8.66148H109.15V13.9546H115.245V17.4834H109.15V23.4181H117.011V19.5685H121.019V27.1072H101.935V23.4181H104.981V8.66148H101.933ZM84.7709 21.3329C84.7709 23.7389 84.93 25.5032 85.2508 26.9468H89.5828C89.4211 25.824 89.262 23.7389 89.262 21.0121C89.1003 17.8042 88.1379 17.323 85.8924 16.8418C88.4587 16.3606 89.5828 15.2378 89.5828 11.2278C89.5828 8.01989 89.1003 6.73671 88.1379 5.93472C87.4964 5.29313 86.3749 4.97233 84.6092 4.97233H71.1358V27.1072H75.6269V18.4457H81.8837C83.1669 18.4457 83.6468 18.6061 84.1293 18.9269C84.6118 19.2477 84.7709 19.7289 84.7709 21.3329V21.3329ZM75.6269 14.917V8.82188H82.8461C83.8085 8.82188 84.1293 8.98228 84.2884 9.14267C84.6092 9.46347 84.93 9.94466 84.93 11.8694C84.93 13.7942 84.6092 14.4358 84.2884 14.7566C84.1293 14.917 83.8085 15.0774 82.8461 15.0774L75.6269 14.917ZM95.9987 32H63.9192V0H95.9179V32H95.9987ZM55.5785 23.4181V27.1072H40.3394V23.4181H45.7929V8.66148H40.3394V4.97233H55.5772V8.66148H50.1237V23.4181H55.5785ZM29.834 4.97233H25.6636L22.6161 22.4557L19.0873 6.25551C18.9269 5.13273 18.4457 4.97233 17.4834 4.97233H15.2378C14.2754 4.97233 13.7942 5.29313 13.6338 6.25551L10.1051 22.4557L7.0575 4.97233H2.56636L6.89711 25.9844C7.0575 26.9468 7.3783 27.1072 8.50108 27.1072H11.5486C12.511 27.1072 12.8318 26.9468 13.1526 25.9844L16.521 10.7467L19.8893 25.9844C20.0497 26.9468 20.3705 27.1072 21.4933 27.1072H24.3805C25.3429 27.1072 25.824 26.9468 25.9844 25.9844L29.834 4.97233ZM32.0796 32H0V0H32V32H32.0796Z" fill="#8932F6"/>
</svg>
