<svg width="300" height="32" viewBox="0 0 300 32" fill="none" xmlns="http://www.w3.org/2000/svg">
<path d="M8.29785 8.37195L3 27.8379H7.93715L10.9872 25.5901L11.309 27.8379H16.2045L16.9677 27.1959L17.4092 27.2368L17.7699 27.8384H27.8446L30.534 25.8719L30.2121 27.8384H35.0282L38.6409 25.3107L38.0393 27.8384H42.936L48.114 23.9458L54.7754 10.2987L55.8604 19.5714L53.5317 27.8384H58.9506L62.9241 24.7885C62.9241 24.7885 64.048 27.4778 66.3752 27.8384C67.0172 27.9595 68.1007 28 68.1007 28C68.9043 28 69.3862 27.9918 70.1884 27.8384C71.1609 27.6552 71.686 27.4244 72.5964 27.0363C73.8733 26.4923 75.6868 25.2704 75.6868 25.2704L75.166 27.8384H80.3024L82.8719 26.0725L82.4304 27.8384H93.6278L96.3575 25.872L96.9996 27.8384H103.142L107.998 23.9459L105.71 13.229L112.573 4.55958H106.753L103.703 6.84778L104.225 4.51921H98.2851L97.2001 5.48299C97.2001 5.48299 96.3576 5.00108 95.9968 4.76015C95.6349 4.55975 94.7127 4.55977 94.7127 4.55977H84.9595L83.5138 5.68368C83.5138 5.68368 82.5111 4.64053 81.1866 4.3592C78.9778 3.83837 78.5767 4.03732 77.5336 4.03732C75.7272 4.03732 73.6799 4.88134 73.6799 4.88134L73.7208 4.51939L67.661 4.56027L64.6499 6.96828L64.5689 4.56027H58.6289L56.622 6.04631L57.1847 4.56027H52.0067L49.4385 6.40701L49.3575 4.56027H44.0597L42.0124 6.08532L41.8521 4.51989H27.0018L26.2386 4.92234L26.439 4.51989L21.1816 4.56083L19.1343 6.04694L18.8529 4.52045H13.1133L8.29726 8.37407L8.29785 8.37195Z" fill="#8932F6" stroke="#8932F6" stroke-width="3.3328" stroke-miterlimit="3.864"/>
<path d="M117.617 4.52756L113.121 8.09986L107.623 27.8473H112.921L117.899 24.034L118.62 21.8266C118.62 21.8266 119.628 21.8552 120.266 21.7857C120.852 21.7223 121.751 21.506 121.751 21.506C121.751 21.506 121.228 24.0179 121.912 25.3582C122.834 27.1674 124.44 27.6868 126.487 27.847C128.334 28.0073 129.355 27.8143 131.062 27.2453C132.618 26.7274 134.756 25.2384 134.756 25.2384C134.756 25.2384 135.753 26.5643 136.642 27.0851C137.636 27.6651 138.347 27.7344 139.491 27.847C141.307 28.0257 142.421 27.806 144.108 27.0851C145.913 26.3219 148.964 24.2342 148.964 24.2342L148.081 27.6868H153.098L157.994 23.9529L161.445 11.8725L165.581 8.34062L166.624 4.52738H155.105L153.94 5.32953C153.94 5.32953 153.066 4.77407 152.456 4.52738C151.208 4.02241 150.39 3.98484 149.043 4.00505C147.305 4.03368 146.247 4.23737 144.71 5.04964C143.76 5.55031 142.502 6.69444 142.502 6.69444C142.502 6.69444 141.739 5.20978 140.856 4.8087C139.29 4.08587 138.257 4.07287 136.562 4.12624C135.043 4.17531 134.155 4.35278 132.749 4.92845C131.527 5.42904 129.859 6.69444 129.859 6.69444C129.859 6.69444 129.296 5.65126 128.895 5.20977C128.534 4.72792 127.451 4.52738 127.451 4.52738H117.617L117.617 4.52756Z" fill="#8932F6" stroke="#8932F6" stroke-width="3.3328" stroke-miterlimit="3.864"/>
<path d="M13.5324 5.01855L8.63574 23.2409H12.3278L15.2984 13.0464L16.4224 23.2409H20.5964L25.8149 5.01855H22.0421L19.3931 13.7674L18.4293 5.01855H13.5324Z" fill="white"/>
<path d="M27.3966 5.01855L22.4189 23.2409H31.9714L33.0953 20.0293H27.7181L29.0022 15.5351H33.8989L34.8612 12.3234H29.8852L31.1693 8.30966H36.5482L35.5036 23.2409H39.7582L44.5743 12.9654L43.5311 23.2409H47.6258L56.4556 5.01862H52.6019L48.1077 14.0893L48.9907 5.01862H44.8167L40.5621 13.9294L41.4451 5.01862L27.3966 5.01855Z" fill="white"/>
<path d="M27.3966 5.01855L22.4189 23.2409H31.9714L33.0953 20.0293H27.7181L29.0022 15.5351H33.8989L34.8612 12.3234H29.8852L31.1693 8.30966H36.5482L35.5036 23.2409H39.7582L44.5743 12.9654L43.5311 23.2409H47.6258L56.4556 5.01862H52.6019L48.1077 14.0893L48.9907 5.01862H44.8167L40.5621 13.9294L41.4451 5.01862L27.3966 5.01855Z" stroke="#8932F6" stroke-width="1.39696" stroke-miterlimit="3.864"/>
<path d="M13.5324 5.01855L8.63574 23.2409H12.3278L15.2984 13.0464L16.4224 23.2409H20.5964L25.8149 5.01855H22.0421L19.3931 13.7674L18.4293 5.01855H13.5324Z" stroke="#8932F6" stroke-width="1.39696" stroke-miterlimit="3.864"/>
<path d="M71.1573 8.33126L67.9471 20.1319C67.9471 20.1319 67.6367 21.6367 68.1074 22.3797C68.3916 22.8299 68.6975 22.9814 69.1506 23.2627C69.9845 23.7793 70.5875 23.8485 71.5586 23.9841C72.645 24.1371 73.287 24.0835 74.3676 23.9047C75.2679 23.7563 75.7916 23.6508 76.6155 23.2627C77.2907 22.9437 77.6529 22.7029 78.2213 22.2181C78.9672 21.5848 79.8271 20.3728 79.8271 20.292C79.8271 20.292 81.5122 14.2715 81.5122 14.3521L82.7977 9.85619C82.7168 9.85619 83.4787 7.64872 83.2378 6.72534C82.8771 5.04019 81.7532 4.59871 81.0708 4.51789C79.7867 4.27701 79.5082 4.28724 78.5026 4.27701C77.813 4.26883 77.4191 4.26068 76.7367 4.35801C75.7845 4.49502 75.2333 4.61933 74.3676 5.04041C73.7977 5.31729 73.4904 5.51792 73.0042 5.92337C72.0938 6.67941 71.1574 8.33139 71.1574 8.33139" fill="white"/>
<path d="M59.5838 5.01855L61.0294 15.7746L59.0225 23.2409H63.2758L65.3635 16.0155L72.8286 5.01855H68.4946L64.4 11.5213L63.9988 5.01855H59.5838Z" fill="white"/>
<path d="M75.7794 8.69867L72.8088 18.8932C72.8088 18.8932 72.6529 19.4053 72.7679 19.6968C72.8672 19.9434 73.0133 20.0588 73.2498 20.1773C73.5312 20.3188 73.7389 20.2725 74.0534 20.2582C74.4399 20.2419 74.694 20.2337 75.0172 20.0173C75.2466 19.8644 75.3635 19.7376 75.4976 19.4951C75.5798 19.3478 75.5385 18.9742 75.6579 19.0939C75.6988 19.1348 77.9866 10.7864 77.9866 10.7864L78.3473 9.34069C78.3473 9.34069 78.5203 8.94851 78.4683 8.69867C78.4356 8.54121 78.3731 8.45937 78.268 8.33791C78.0545 8.09538 77.8265 8.04921 77.5047 8.01608C77.2234 7.98746 77.0574 8.02832 76.7819 8.09702C76.5365 8.15755 76.3954 8.20213 76.1803 8.33791C76.0028 8.44915 75.7791 8.69867 75.7791 8.69867H75.7794Z" fill="#8932F6" stroke="#8932F6" stroke-width="1.39696" stroke-miterlimit="3.864"/>
<path d="M85.4718 5.01855L80.4941 23.2409H84.8296L86.9968 15.8552H88.9228C88.9228 15.8552 89.5101 15.9648 89.6457 16.2564C89.7381 16.4556 89.6457 16.819 89.6457 16.819L87.9606 23.2407H92.5353L94.4629 16.4178C94.4629 16.4178 94.7529 15.4988 94.4629 15.0529C94.3042 14.8104 94.1439 14.7253 93.9002 14.571C93.6405 14.405 93.1774 14.2492 93.1774 14.2492C93.1774 14.2492 93.8844 13.9449 94.3013 13.6879C94.6633 13.4642 94.8827 13.346 95.1843 13.0459C95.3573 12.8729 95.5855 12.564 95.5855 12.564L97.0312 7.66733C97.0312 7.66733 97.1338 7.01811 97.0312 6.62423C96.9375 6.26515 96.8337 6.06007 96.5897 5.78164C96.3472 5.5019 96.1539 5.39062 95.8264 5.21894C95.6461 5.12528 95.3445 5.01855 95.3445 5.01855" fill="white"/>
<path d="M89.3156 8.33147L87.9912 12.586H90.2794C90.2794 12.586 90.6532 12.4331 90.8407 12.2658C91.1233 12.0119 91.1683 11.7681 91.3226 11.4218C91.5172 10.9875 91.5679 10.7192 91.6833 10.2575C91.8043 9.77847 91.9994 9.50294 91.9241 9.0138C91.8914 8.80318 91.9231 8.63431 91.7638 8.49154C91.6497 8.38929 91.5545 8.35862 91.4031 8.33122C91.2645 8.30668 91.0412 8.33122 91.0412 8.33122L89.3156 8.33147Z" fill="#8932F6" stroke="#8932F6" stroke-width="1.39696" stroke-miterlimit="3.864"/>
<path d="M99.0087 5.01855L93.6299 23.2409H98.3262L100.775 15.1731L102.259 23.2409H107.196L105.11 13.1257L111.532 5.01899H107.277L101.818 11.0395L103.504 5.01899L99.0087 5.01855Z" fill="white"/>
<path d="M99.0087 5.01855L93.6299 23.2409H98.3262L100.775 15.1731L102.259 23.2409H107.196L105.11 13.1257L111.532 5.01899H107.277L101.818 11.0395L103.504 5.01899L99.0087 5.01855Z" stroke="#8932F6" stroke-width="1.39696" stroke-miterlimit="3.864"/>
<path d="M85.4718 5.01855L80.4941 23.2409H84.8296L86.9968 15.8552H88.9228C88.9228 15.8552 89.5101 15.9648 89.6457 16.2564C89.7381 16.4556 89.6457 16.819 89.6457 16.819L87.9606 23.2407H92.5353L94.4629 16.4178C94.4629 16.4178 94.7529 15.4988 94.4629 15.0529C94.3042 14.8104 94.1439 14.7253 93.9002 14.571C93.6405 14.405 93.1774 14.2492 93.1774 14.2492C93.1774 14.2492 93.8844 13.9449 94.3013 13.6879C94.6633 13.4642 94.8827 13.346 95.1843 13.0459C95.3573 12.8729 95.5855 12.564 95.5855 12.564L97.0312 7.66733C97.0312 7.66733 97.1338 7.01811 97.0312 6.62423C96.9375 6.26515 96.8337 6.06007 96.5897 5.78164C96.3472 5.5019 96.1539 5.39062 95.8264 5.21894C95.6461 5.12528 95.3445 5.01855 95.3445 5.01855H85.4718Z" stroke="#8932F6" stroke-width="1.39696" stroke-miterlimit="3.864"/>
<path d="M71.1573 8.33126L67.9471 20.1319C67.9471 20.1319 67.6367 21.6367 68.1074 22.3797C68.3916 22.8299 68.6975 22.9814 69.1506 23.2627C69.9845 23.7793 70.5876 23.8485 71.5586 23.9841C72.645 24.1371 73.287 24.0835 74.3677 23.9047C75.2679 23.7563 75.7917 23.6508 76.6155 23.2627C77.2907 22.9437 77.6529 22.7029 78.2213 22.2181C78.9672 21.5848 79.8271 20.3728 79.8271 20.292C79.8271 20.292 81.5123 14.2715 81.5123 14.3521L82.7978 9.85619C82.7168 9.85619 83.4788 7.64872 83.2378 6.72534C82.8771 5.04019 81.7532 4.59871 81.0708 4.51789C79.7867 4.27701 79.5082 4.28724 78.5026 4.27701C77.813 4.26883 77.4191 4.26068 76.7367 4.35801C75.7845 4.49502 75.2333 4.61933 74.3676 5.04041C73.7977 5.31729 73.4904 5.51792 73.0042 5.92337C72.0939 6.67941 71.1574 8.33139 71.1574 8.33139L71.1573 8.33126Z" stroke="#8932F6" stroke-width="1.39696" stroke-miterlimit="3.864"/>
<path d="M59.5837 5.01855L61.0293 15.7746L59.0225 23.2409H63.2758L65.3635 16.0155L72.8285 5.01855H68.4942L64.3995 11.5213L63.9983 5.01855H59.5837Z" stroke="#8932F6" stroke-width="1.39696" stroke-miterlimit="3.864"/>
<path d="M118.148 5.01855L113.051 23.2409H117.305L118.991 17.7021C118.991 17.7021 122.322 17.8625 123.205 17.7021C123.887 17.5811 124.326 17.4367 124.971 17.0991C125.685 16.7269 126.131 16.4974 126.617 15.8554C126.933 15.437 126.998 15.1283 127.219 14.6522C128.299 12.3134 129.066 8.30978 129.066 8.30978C129.066 8.30978 129.306 7.54795 129.145 7.06606C129.066 6.74419 129.133 6.50054 128.985 6.18309C128.84 5.86981 128.684 5.72432 128.423 5.50069C128.135 5.25408 127.941 5.21926 127.579 5.01874H127.419" fill="white"/>
<path d="M121.748 8.33134L120.062 14.192C120.062 14.192 120.321 14.3405 120.504 14.3924C120.776 14.4689 120.944 14.4398 121.226 14.4333C121.574 14.4251 121.781 14.4251 122.109 14.3122C122.573 14.1507 122.823 13.947 123.113 13.5504C123.353 13.22 123.37 12.9676 123.514 12.5867C123.849 11.7008 124.197 10.258 124.197 10.258C124.197 10.258 124.344 9.77469 124.357 9.45581C124.369 9.12536 124.484 8.87008 124.278 8.61328C124.149 8.45296 124.019 8.42146 123.835 8.3319C123.105 7.97404 121.748 8.3319 121.748 8.3319L121.748 8.33134Z" fill="#8932F6" stroke="#8932F6" stroke-width="1.39696" stroke-miterlimit="3.864"/>
<path d="M129.968 7.67661L126.396 20.0383C126.396 20.0383 126.248 21.6023 126.758 22.3669C127.058 22.8185 127.341 23.0003 127.801 23.2903C128.626 23.8112 129.242 23.84 130.209 23.9728C131.294 24.1213 131.936 24.1041 133.018 23.9319C133.918 23.7892 134.444 23.6836 135.266 23.2898C135.947 22.9623 136.315 22.7157 136.872 22.2064C137.564 21.5716 138.316 20.3595 138.316 20.2788C138.316 20.2788 140.082 14.3793 140.082 14.4586L141.447 9.64255C141.368 9.64255 142.01 8.00642 141.769 6.99359C141.636 6.44241 141.608 5.91004 141.166 5.66911C140.685 5.34888 140.3 5.09052 139.681 4.8669C138.847 4.56385 138.321 4.54789 137.433 4.50495C136.462 4.45751 135.901 4.48452 134.946 4.66651C134.224 4.80352 133.816 4.90576 133.14 5.18734C132.297 5.53947 131.825 5.79907 131.133 6.39201C130.619 6.83063 129.968 7.67611 129.968 7.67611" fill="white"/>
<path d="M133.934 9.19023L131.125 18.8237C131.125 18.8237 130.884 19.9057 131.486 20.1871C131.807 20.3081 132.217 20.4423 132.69 20.3875C133.089 20.3429 133.412 20.1466 133.653 20.0268C134.175 19.7454 134.175 18.9837 134.295 19.1034C134.336 19.1443 136.623 10.7959 136.623 10.7959L136.984 9.35024C136.984 9.35024 137.225 8.86838 136.824 8.30714C136.743 8.14682 136.353 8.04006 136.021 7.98526C135.452 7.89283 135.058 8.06584 134.576 8.30714C134.256 8.46746 133.934 9.1901 133.934 9.1901L133.934 9.19023Z" fill="#8932F6" stroke="#8932F6" stroke-width="1.39696" stroke-miterlimit="3.864"/>
<path d="M155.529 5.01783L154.687 8.14867H157.536L153.281 23.2399H157.496L161.75 8.30856H164.8L165.764 5.01758L155.529 5.01783Z" fill="white"/>
<path d="M149.066 11.1537H153.321C153.321 11.1537 153.611 10.1307 153.763 9.46847C153.905 8.8452 154.077 8.50039 154.083 7.86268C154.091 7.14419 154.103 6.66374 153.722 6.05637C153.457 5.63504 153.219 5.44173 152.799 5.1734C152.36 4.89366 152.059 4.82408 151.555 4.69145C151.004 4.54708 150.676 4.53401 150.109 4.49107C149.377 4.43463 148.952 4.38719 148.224 4.49107C147.81 4.55037 147.588 4.63952 147.179 4.73195C146.68 4.84442 146.377 4.83461 145.895 5.01334C145.337 5.21987 145.061 5.43752 144.571 5.77517C144.141 6.0725 143.898 6.24985 143.528 6.6192C143.18 6.96274 142.963 7.15443 142.724 7.58148C142.505 7.97532 142.45 8.23226 142.323 8.66508C142.206 9.06628 142.141 9.29556 142.082 9.70817C142.011 10.2204 141.946 10.5262 142.041 11.0341C142.115 11.4279 142.233 11.6328 142.402 11.9964C142.771 12.7928 143.162 13.1391 143.686 13.8432C144.065 14.3525 144.282 14.6396 144.69 15.1272C145.081 15.5947 145.345 15.8212 145.733 16.2916C145.974 16.5832 146.14 16.7288 146.335 17.0533C146.537 17.3912 146.666 17.5901 146.736 17.9767C146.807 18.362 146.801 18.6029 146.695 18.9809C146.611 19.2839 146.551 19.4757 146.333 19.7022C146.068 19.9807 145.831 20.0875 145.45 20.1452C145.059 20.2028 144.792 20.1779 144.447 19.9837C144.205 19.8479 144.056 19.7457 143.925 19.5018C143.789 19.2507 143.805 19.0661 143.805 18.7804C143.805 18.4602 143.893 18.2884 143.965 17.9768C144.035 17.6783 144.166 17.215 144.166 17.215H139.751C139.751 17.215 139.591 17.6015 139.51 17.857C139.385 18.2553 139.354 18.4919 139.269 18.9001C139.142 19.5076 138.976 19.8452 138.988 20.4656C139 21.0095 139.053 21.3326 139.269 21.8304C139.45 22.2445 139.588 22.4782 139.911 22.7942C140.229 23.103 140.477 23.2011 140.875 23.3958C141.547 23.7234 141.98 23.8085 142.72 23.9181C143.557 24.0408 144.048 24.0003 144.889 23.9181C145.811 23.8273 146.346 23.7549 147.216 23.4362C147.874 23.1937 148.232 23.0092 148.822 22.6326C149.395 22.2678 149.722 22.0468 150.187 21.549C150.663 21.0384 150.892 20.6964 151.189 20.0644C151.501 19.4008 151.609 18.9839 151.712 18.2581C151.834 17.3895 151.901 16.8571 151.671 16.0102C151.497 15.3682 151.277 15.0392 150.909 14.4852C150.467 13.8201 150.088 13.5446 149.544 12.9602C148.963 12.3369 148.574 12.0411 148.019 11.3948C147.639 10.9562 147.322 10.7644 147.096 10.2305C146.902 9.77605 146.774 9.47448 146.855 8.98677C146.902 8.70253 146.938 8.51361 147.136 8.30438C147.314 8.11543 147.488 8.09375 147.738 8.02299C147.996 7.95101 148.153 7.90891 148.42 7.94368C148.732 7.98457 148.919 8.08067 149.143 8.30438C149.321 8.4831 149.406 8.62007 149.463 8.86558C149.531 9.15555 149.455 9.33165 149.422 9.62885C149.394 9.94336 149.375 10.1237 149.303 10.431C149.233 10.7197 149.062 11.1538 149.062 11.1538" fill="white"/>
<path d="M149.066 11.1537H153.321C153.321 11.1537 153.611 10.1307 153.763 9.46847C153.905 8.8452 154.077 8.50039 154.083 7.86268C154.091 7.14419 154.103 6.66374 153.722 6.05637C153.457 5.63504 153.219 5.44173 152.799 5.1734C152.36 4.89366 152.059 4.82408 151.555 4.69145C151.004 4.54708 150.676 4.53401 150.109 4.49107C149.377 4.43463 148.952 4.38719 148.224 4.49107C147.81 4.55037 147.588 4.63952 147.179 4.73195C146.68 4.84442 146.377 4.83461 145.895 5.01334C145.337 5.21987 145.061 5.43752 144.571 5.77517C144.141 6.0725 143.898 6.24985 143.528 6.6192C143.18 6.96274 142.963 7.15443 142.724 7.58148C142.505 7.97532 142.45 8.23226 142.323 8.66508C142.206 9.06628 142.141 9.29556 142.082 9.70817C142.011 10.2204 141.946 10.5262 142.041 11.0341C142.115 11.4279 142.233 11.6328 142.402 11.9964C142.771 12.7928 143.162 13.1391 143.686 13.8432C144.065 14.3525 144.282 14.6396 144.69 15.1272C145.081 15.5947 145.345 15.8212 145.733 16.2916C145.974 16.5832 146.14 16.7288 146.335 17.0533C146.537 17.3912 146.666 17.5901 146.736 17.9767C146.807 18.362 146.801 18.6029 146.695 18.9809C146.611 19.2839 146.551 19.4757 146.333 19.7022C146.068 19.9807 145.831 20.0875 145.45 20.1452C145.059 20.2028 144.792 20.1779 144.447 19.9837C144.205 19.8479 144.056 19.7457 143.925 19.5018C143.789 19.2507 143.805 19.0661 143.805 18.7804C143.805 18.4602 143.893 18.2884 143.965 17.9768C144.035 17.6783 144.166 17.215 144.166 17.215H139.751C139.751 17.215 139.591 17.6015 139.51 17.857C139.385 18.2553 139.354 18.4919 139.269 18.9001C139.142 19.5076 138.976 19.8452 138.988 20.4656C139 21.0095 139.053 21.3326 139.269 21.8304C139.45 22.2445 139.588 22.4782 139.911 22.7942C140.229 23.103 140.477 23.2011 140.875 23.3958C141.547 23.7234 141.98 23.8085 142.72 23.9181C143.557 24.0408 144.048 24.0003 144.889 23.9181C145.811 23.8273 146.346 23.7549 147.216 23.4362C147.874 23.1937 148.232 23.0092 148.822 22.6326C149.395 22.2678 149.722 22.0468 150.187 21.549C150.663 21.0384 150.892 20.6964 151.189 20.0644C151.501 19.4008 151.609 18.9839 151.712 18.2581C151.834 17.3895 151.901 16.8571 151.671 16.0102C151.497 15.3682 151.277 15.0392 150.909 14.4852C150.467 13.8201 150.088 13.5446 149.544 12.9602C148.963 12.3369 148.574 12.0411 148.019 11.3948C147.639 10.9562 147.322 10.7644 147.096 10.2305C146.902 9.77605 146.774 9.47448 146.855 8.98677C146.902 8.70253 146.938 8.51361 147.136 8.30438C147.314 8.11543 147.488 8.09375 147.738 8.02299C147.996 7.95101 148.153 7.90891 148.42 7.94368C148.732 7.98457 148.919 8.08067 149.143 8.30438C149.321 8.4831 149.406 8.62007 149.463 8.86558C149.531 9.15555 149.455 9.33165 149.422 9.62885C149.394 9.94336 149.375 10.1237 149.303 10.431C149.233 10.7197 149.062 11.1538 149.062 11.1538L149.066 11.1537Z" stroke="#8932F6" stroke-width="1.39696" stroke-miterlimit="3.864"/>
<path d="M129.968 7.67661L126.396 20.0383C126.396 20.0383 126.248 21.6023 126.758 22.3669C127.058 22.8185 127.341 23.0003 127.801 23.2903C128.626 23.8112 129.242 23.84 130.209 23.9728C131.294 24.1213 131.936 24.1041 133.018 23.9319C133.918 23.7892 134.444 23.6836 135.266 23.2898C135.947 22.9623 136.315 22.7157 136.872 22.2064C137.564 21.5716 138.316 20.3595 138.316 20.2788C138.316 20.2788 140.082 14.3793 140.082 14.4586L141.447 9.64255C141.368 9.64255 142.01 8.00642 141.769 6.99359C141.636 6.44241 141.608 5.91004 141.166 5.66911C140.685 5.34888 140.3 5.09052 139.681 4.8669C138.847 4.56385 138.321 4.54789 137.433 4.50495C136.462 4.45751 135.901 4.48452 134.946 4.66651C134.224 4.80352 133.816 4.90576 133.14 5.18734C132.297 5.53947 131.825 5.79907 131.133 6.39201C130.619 6.83063 129.968 7.67611 129.968 7.67611L129.968 7.67661Z" stroke="#8932F6" stroke-width="1.39696" stroke-miterlimit="3.864"/>
<path d="M118.148 5.01855L113.051 23.2409H117.305L118.991 17.7021C118.991 17.7021 122.322 17.8625 123.205 17.7021C123.887 17.5811 124.326 17.4367 124.971 17.0991C125.685 16.7269 126.131 16.4974 126.617 15.8554C126.933 15.437 126.998 15.1283 127.219 14.6522C128.299 12.3134 129.066 8.30978 129.066 8.30978C129.066 8.30978 129.306 7.54795 129.145 7.06606C129.066 6.74419 129.133 6.50054 128.985 6.18309C128.84 5.86981 128.684 5.72432 128.423 5.50069C128.135 5.25408 127.941 5.21926 127.579 5.01874H127.419L118.148 5.01855Z" stroke="#8932F6" stroke-width="1.39696" stroke-miterlimit="3.864"/>
<path d="M155.529 5.01783L154.687 8.14867H157.536L153.281 23.2399H157.496L161.75 8.30856H164.8L165.764 5.01758L155.529 5.01783Z" stroke="#8932F6" stroke-width="1.39696" stroke-miterlimit="3.864"/>
</svg>
