<svg width="300" height="32" viewBox="0 0 300 32" fill="none" xmlns="http://www.w3.org/2000/svg">
<path d="M14.3936 16.0021C14.3936 16.8744 15.0751 17.5559 15.9474 17.5559C16.8197 17.5559 17.5012 16.8744 17.5012 16.0021C17.5012 15.1297 16.8197 14.4482 15.9474 14.4482C15.0751 14.4755 14.3936 15.157 14.3936 16.0021ZM27.4238 14.4755C26.5515 14.4755 25.87 15.157 25.87 16.0293C25.87 16.9016 26.5515 17.5831 27.4238 17.5831C28.2962 17.5831 28.9777 16.9016 28.9777 16.0293C28.9777 15.157 28.2962 14.4755 27.4238 14.4755ZM27.4238 26.1428C26.5515 26.1428 25.87 26.8243 25.87 27.6966C25.87 28.5689 26.5515 29.2504 27.4238 29.2504C28.2962 29.2504 28.9777 28.5689 28.9777 27.6966C28.9777 26.8243 28.2962 26.1428 27.4238 26.1428Z" fill="#8932F6"/>
<path d="M30.722 1.63479C29.1682 -0.300672 26.3877 -0.382449 24.7521 1.14411L24.5613 1.33493L24.1796 1.63479C22.6258 2.88875 20.3087 2.77971 18.8639 1.33493V1.22589C18.3732 0.735208 17.719 0.353569 17.0375 0.162749C16.9285 0.162749 16.7376 0.0537109 16.6559 0.0537109H15.102C14.993 0.0537109 14.9112 0.0537093 14.8022 0.162749H14.6114C14.5023 0.162749 14.4205 0.271788 14.3115 0.271788C14.3115 0.271788 14.2025 0.271794 14.2025 0.380834C14.0934 0.380834 14.0116 0.489873 13.9026 0.489873C13.9026 0.489873 13.7936 0.489871 13.7936 0.598911C13.6845 0.707951 13.6027 0.707954 13.4937 0.789734C13.4937 0.789734 13.3847 0.789733 13.3847 0.898772C13.2756 1.00781 13.1938 1.00781 13.0848 1.08959L12.9758 1.19863L12.7849 1.38945L12.4033 1.68931C10.8495 2.94327 8.53238 2.83423 7.19664 1.38945C7.19664 1.38945 7.0876 1.38945 7.0876 1.28041L6.89678 1.08959C6.32432 0.598908 5.64282 0.217268 4.87954 0.135488H3.1349C3.1349 0.244528 3.02586 0.244531 2.94408 0.326311H2.91682C2.42614 0.517131 1.96272 0.707948 1.55382 1.08959L1.44478 1.19863L1.14492 1.49849C0.76328 1.88013 0.57246 2.37081 0.38164 2.75245C0.38164 2.86149 0.2726 2.94327 0.2726 3.05231C0.2726 3.16135 0.16356 3.24313 0.16356 3.43395C0.0545201 4.11545 0.05452 4.79695 0.2726 5.45119C0.2726 5.56023 0.38164 5.64201 0.38164 5.75105V5.86009C0.38164 5.96913 0.49068 6.05091 0.49068 6.15995C0.59972 6.26899 0.59972 6.35077 0.6815 6.54159C0.87232 6.65063 1.06314 6.84145 1.17218 6.92323L1.363 7.11405L1.55382 7.30487C2.9986 8.74965 2.9986 11.2576 1.44478 12.8114C1.25396 13.0022 0.9541 13.3021 0.87232 13.4929C0.76328 13.6019 0.76328 13.6837 0.6815 13.8745V13.9836C0.57246 14.0926 0.57246 14.1744 0.49068 14.2834V14.3925C0.49068 14.5015 0.38164 14.5833 0.38164 14.6923V14.8014C0.38164 14.9104 0.38164 14.9922 0.2726 15.1012V16.546C0.2726 16.655 0.2726 16.7368 0.38164 16.8459V16.9549C0.57246 17.6364 0.9541 18.3179 1.52656 18.8904C3.08038 20.4442 3.08038 22.9521 1.52656 24.4787L1.41752 24.5877L1.2267 24.7785V24.8876C1.11766 24.9966 1.03588 25.0784 1.03588 25.1874C1.03588 25.1874 1.03588 25.2965 0.92684 25.2965C0.8178 25.4055 0.8178 25.4873 0.73602 25.5963L0.62698 25.7054C0.62698 25.8144 0.51794 25.8144 0.51794 25.8962C0.51794 25.978 0.4089 26.0052 0.4089 26.087C0.4089 26.196 0.4089 26.1961 0.29986 26.2778C0.10904 26.6595 0 27.1501 0 27.5318V28.2951C0.10904 28.5949 0.10904 28.8675 0.29986 29.0583C0.29986 29.1674 0.4089 29.2492 0.4089 29.2492C0.4089 29.2492 0.4089 29.3582 0.51794 29.3582C0.51794 29.4672 0.62698 29.549 0.62698 29.6581C0.62698 29.6581 0.62698 29.7671 0.73602 29.7671C0.84506 29.9579 0.92684 30.067 1.03588 30.1487C1.03588 30.1487 1.03588 30.2578 1.14492 30.2578C1.14492 30.2578 1.14492 30.3668 1.25396 30.3668C1.25396 30.4759 1.363 30.4759 1.363 30.4759L1.47204 30.5849C1.58108 30.6939 1.66286 30.694 1.66286 30.7757L1.7719 30.8848C1.7719 30.8848 1.88094 30.8848 1.88094 30.9938C1.98998 31.1028 2.07176 31.1846 2.1808 31.1846C2.1808 31.1846 2.28984 31.1846 2.28984 31.2937C2.39888 31.4027 2.48066 31.4027 2.5897 31.4845H2.64422C2.75326 31.5935 2.83504 31.5935 3.02586 31.5935C3.1349 31.5935 3.32572 31.7026 3.4075 31.7026H3.51654C3.62558 31.7026 3.70736 31.7026 3.8164 31.8116H4.68872C4.98858 31.8116 5.1794 31.7026 5.452 31.7026H5.56104C5.67008 31.7026 5.75186 31.5935 5.8609 31.5935H5.91542C6.02446 31.5935 6.10624 31.4845 6.21528 31.4845H6.32432C6.51514 31.3754 6.815 31.1846 7.00582 31.1028L7.30568 30.803L7.41472 30.6939C8.96854 29.0583 11.4765 29.0583 13.003 30.6939C14.7477 32.5204 17.6372 32.4386 19.2728 30.3941C20.4177 28.9493 20.4177 26.823 19.2728 25.2692C17.719 23.3337 14.9385 23.252 13.3029 24.7785L13.1121 24.9693L12.7304 25.2692C11.1766 26.5232 8.8595 26.4141 7.41472 24.9693L7.2239 24.7785L6.92404 24.3969C5.67008 22.8431 5.77912 20.526 7.2239 19.0812C8.09622 18.3179 8.47786 17.2548 8.47786 16.1916V15.8918C8.47786 14.9377 8.09622 13.9563 7.33294 13.2748C7.33294 13.1658 7.2239 13.1658 7.2239 13.084L6.92404 12.7023C5.67008 11.1485 5.77912 8.83143 7.2239 7.38665L7.33294 7.27761L7.44198 7.16857C8.9958 5.53297 11.5037 5.53297 13.0303 7.16857L13.1393 7.27761L13.2484 7.38665L13.4392 7.57747C13.5482 7.57747 13.5482 7.68651 13.63 7.68651C13.7118 7.68651 13.739 7.79555 13.8208 7.79555C13.9026 7.79555 13.9299 7.90459 14.0116 7.90459C14.0934 7.90459 14.1207 8.01363 14.2025 8.01363C14.2842 8.01363 14.3115 8.12267 14.3933 8.12267C14.4751 8.12267 14.5023 8.23171 14.5841 8.23171C14.6659 8.23171 14.6931 8.23171 14.7749 8.34075C14.884 8.34075 14.884 8.34075 14.9657 8.44979H16.6013C16.7104 8.44979 16.7922 8.44979 16.9012 8.34075H17.092C17.2011 8.34075 17.2828 8.23171 17.3919 8.23171H17.5009C17.61 8.23171 17.6917 8.12267 17.8826 8.04089C18.2642 7.85007 18.6458 7.55021 18.9457 7.27761L19.0547 7.16857C20.6086 5.53297 23.1165 5.53297 24.643 7.16857C26.2786 9.10403 29.2772 8.99499 30.8311 6.97775C31.8669 5.20585 31.8669 3.07957 30.722 1.63479Z" fill="#8932F6"/>
<path d="M52.7208 13.6027C52.1484 13.0303 51.6577 12.6486 50.9762 12.3488C50.4037 12.0489 49.7222 11.8581 48.8499 11.8581C48.0866 11.8581 47.2961 12.0489 46.7236 12.3488C46.1512 12.6486 45.6605 13.0303 45.2788 13.6027C44.8972 14.0934 44.5973 14.6659 44.4065 15.3474C44.2157 16.0289 44.1067 16.7104 44.1067 17.3646C44.1067 18.0189 44.2157 18.7276 44.4883 19.3819C44.6791 20.0634 45.0608 20.5268 45.4424 21.0175C45.824 21.5081 46.3965 21.8898 46.9962 22.1624C47.5687 22.4622 48.2502 22.544 49.0135 22.544C49.8858 22.544 50.5673 22.3532 51.1397 22.0533C51.7122 21.7535 52.2847 21.3718 52.7753 20.7994L54.7926 22.9257C54.0293 23.798 53.157 24.3704 52.1756 24.7521C51.2215 25.1337 50.1584 25.3245 48.9862 25.3245C47.8413 25.3245 46.6691 25.1337 45.715 24.7521C44.7609 24.3704 43.8886 23.798 43.2071 23.1165C42.5256 22.435 41.9531 21.5627 41.5715 20.6086C41.1898 19.6545 40.999 18.4823 40.999 17.3374C40.999 16.1924 41.1898 15.0203 41.5715 14.0662C41.9531 13.1121 42.5256 12.2397 43.2071 11.4492C43.8886 10.7677 44.7609 10.1952 45.715 9.8136C46.6691 9.43196 47.8413 9.24115 48.9862 9.24115C50.1311 9.24115 51.1943 9.43196 52.1756 9.8136C53.2388 10.1952 54.1111 10.8767 54.8744 11.64L52.7208 13.6027ZM59.2632 17.1738C59.2632 17.9371 59.3723 18.7276 59.6449 19.3001C59.8357 19.9816 60.2173 20.554 60.599 21.0447C60.9806 21.5354 61.5531 21.917 62.1528 22.1079C62.7252 22.4077 63.5158 22.4895 64.2791 22.4895C65.0423 22.4895 65.7238 22.3805 66.4053 22.1079C66.9778 21.808 67.5503 21.4264 67.9592 21.0447C68.3408 20.554 68.7224 19.9816 68.9133 19.3001C69.1041 18.6186 69.2949 17.9371 69.2949 17.1738C69.2949 16.4105 69.1859 15.62 68.9133 15.0475C68.7224 14.366 68.3408 13.7936 67.9592 13.3029C67.5775 12.8122 67.0051 12.4306 66.4053 12.2397C65.8329 11.9399 65.0423 11.8581 64.2791 11.8581C63.5158 11.8581 62.8343 11.9671 62.1528 12.2397C61.5803 12.5396 61.0079 12.9212 60.599 13.3029C60.2173 13.7936 59.8357 14.366 59.6449 15.0475C59.454 15.729 59.2632 16.4105 59.2632 17.1738ZM56.1828 17.1738C56.1828 16.0289 56.3737 14.9657 56.7553 13.9844C57.1369 13.0303 57.7094 12.158 58.4999 11.3674C59.2632 10.6041 60.0538 10.0044 61.1169 9.62278C62.071 9.24114 63.1341 8.94128 64.3063 8.94128C65.4785 8.94128 66.5144 9.1321 67.4957 9.62278C68.4498 10.0044 69.3222 10.5769 70.1127 11.3674C70.876 12.1307 71.3667 13.003 71.8573 13.9844C72.239 14.9385 72.4298 16.0016 72.4298 17.1738C72.4298 18.3187 72.239 19.3819 71.8573 20.3632C71.4757 21.3173 70.9032 22.1896 70.1127 22.9802C69.3494 23.7435 68.5589 24.2341 67.4957 24.7248C66.5416 25.1065 65.4785 25.4063 64.3063 25.4063C63.1614 25.4063 62.0983 25.2155 61.1169 24.7248C60.1628 24.3432 59.2905 23.7707 58.4999 22.9802C57.7367 22.2169 57.246 21.4264 56.7553 20.3632C56.4827 19.3819 56.1828 18.3187 56.1828 17.1738ZM75.4011 24.9974H78.2907V9.56826H75.4011V24.9974ZM74.7196 3.9527C74.7196 3.38024 74.9105 2.88956 75.2921 2.39888C75.6737 2.01724 76.1644 1.71738 76.7369 1.71738C77.3093 1.71738 77.8 1.9082 78.1817 2.39888C78.5633 2.78052 78.7541 3.35298 78.7541 3.9527C78.7541 4.55242 78.5633 5.01584 78.1817 5.50652C77.8 5.88816 77.3093 6.18802 76.7369 6.18802C76.1644 6.18802 75.6737 5.9972 75.2921 5.50652C74.9105 5.09762 74.7196 4.52516 74.7196 3.9527ZM82.3252 9.541H85.242V11.9399H85.351C85.7327 11.0676 86.3051 10.3861 87.2865 9.92265C88.1588 9.43197 89.222 9.15936 90.4759 9.15936C91.2392 9.15936 91.9207 9.2684 92.6022 9.541C93.2837 9.73182 93.8562 10.1135 94.3468 10.6041C94.8375 11.0948 95.2192 11.6673 95.6008 12.4306C95.9007 13.1938 96.0915 14.0662 96.0915 15.1293V25.0792H93.1474V15.9198C93.1474 15.2383 93.0384 14.5568 92.8475 14.0934C92.6567 13.6027 92.3569 13.1393 92.0843 12.8395C91.7844 12.5396 91.4028 12.267 90.9393 12.158C90.5577 12.0489 90.067 11.9671 89.5763 11.9671C89.0039 11.9671 88.4314 12.0762 87.9407 12.267C87.4501 12.4578 86.9866 12.7577 86.5777 13.2211C86.1961 13.6027 85.8962 14.1752 85.7054 14.8567C85.5146 15.5382 85.4056 16.3015 85.4056 17.1738V25.1882H82.516V9.56826M106.75 22.5713C107.513 22.5713 108.195 22.4622 108.876 22.1896C109.558 21.8898 110.021 21.5081 110.512 21.0447C110.894 20.554 111.275 19.9816 111.466 19.3001C111.657 18.6186 111.848 17.9371 111.848 17.092C111.848 16.3287 111.739 15.5382 111.466 14.884C111.275 14.2025 110.894 13.63 110.512 13.1393C110.021 12.6486 109.558 12.267 108.876 11.9944C108.195 11.6945 107.513 11.6128 106.75 11.6128C105.987 11.6128 105.305 11.7218 104.624 11.9944C103.942 12.2943 103.479 12.6759 102.988 13.1393C102.607 13.63 102.225 14.2025 102.034 14.884C101.843 15.5655 101.653 16.247 101.653 17.092C101.653 17.8553 101.762 18.6458 102.034 19.3001C102.225 19.9816 102.607 20.554 102.988 21.0447C103.37 21.5354 103.942 21.917 104.624 22.1896C105.196 22.3805 105.987 22.5713 106.75 22.5713ZM114.765 24.8884H111.875V22.6803H111.766C111.194 23.5526 110.403 24.1251 109.449 24.6158C108.495 25.1065 107.432 25.2973 106.368 25.2973C105.224 25.2973 104.051 25.1065 103.097 24.7248C102.143 24.3432 101.271 23.7707 100.589 22.9802C99.9079 22.2169 99.3354 21.3446 99.0356 20.3632C98.6539 19.4091 98.4631 18.346 98.4631 17.1738C98.4631 16.0016 98.6539 14.9657 99.0356 13.9026C99.4172 12.9485 99.9079 12.0762 100.589 11.2856C101.271 10.5224 102.143 9.92264 103.097 9.541C104.051 9.15936 105.115 8.96855 106.368 8.96855C107.432 8.96855 108.495 9.15937 109.449 9.65005C110.403 10.1407 111.194 10.795 111.657 11.5855H111.766V0H114.656V24.8884H114.765ZM129.512 15.9198C129.512 15.2383 129.403 14.6659 129.212 14.0934C129.022 13.521 128.722 13.0303 128.34 12.6486C127.958 12.267 127.468 11.9671 126.977 11.6945C126.405 11.5037 125.832 11.3129 125.042 11.3129C124.36 11.3129 123.679 11.4219 123.106 11.6945C122.534 11.9944 122.043 12.267 121.552 12.7577C121.171 13.1393 120.789 13.63 120.598 14.2025C120.407 14.7749 120.217 15.2656 120.217 15.7563H129.485L129.512 15.9198ZM120.271 18.3187C120.271 19.0002 120.462 19.5727 120.762 20.1451C121.062 20.7176 121.443 21.2083 121.907 21.5899C122.397 21.9716 122.97 22.2714 123.542 22.4622C124.224 22.6531 124.796 22.7621 125.478 22.7621C126.35 22.7621 127.222 22.5713 127.877 22.0806C128.558 21.699 129.131 21.1265 129.703 20.445L131.911 22.1896C130.276 24.3159 127.958 25.3791 125.069 25.3791C123.815 25.3791 122.752 25.1882 121.798 24.8066C120.844 24.425 119.971 23.8525 119.29 23.062C118.608 22.2987 118.036 21.5081 117.736 20.445C117.354 19.4909 117.163 18.4278 117.163 17.2556C117.163 16.1107 117.354 15.0475 117.736 14.0662C118.118 13.1121 118.69 12.2397 119.372 11.4492C120.053 10.6859 120.925 10.1952 121.879 9.70456C122.834 9.32292 123.897 9.1321 125.069 9.1321C126.432 9.1321 127.577 9.32292 128.531 9.8136C129.485 10.3043 130.276 10.8767 130.848 11.64C131.42 12.4033 131.911 13.2756 132.211 14.257C132.511 15.2111 132.593 16.1924 132.593 17.2556V18.3187H120.271V18.3187ZM143.987 13.4119C143.606 13.0303 143.224 12.6486 142.733 12.3488C142.243 12.0489 141.588 11.8581 140.907 11.8581C140.225 11.8581 139.653 12.0489 139.08 12.3488C138.59 12.6486 138.317 13.0303 138.317 13.6027C138.317 14.0934 138.508 14.4751 138.808 14.6659C139.108 14.9657 139.489 15.1566 139.871 15.3474C140.253 15.5382 140.743 15.6472 141.125 15.729C141.616 15.8381 141.997 15.9198 142.27 15.9198C142.842 16.1107 143.524 16.2197 144.015 16.4923C144.587 16.6831 145.078 16.983 145.459 17.3646C145.841 17.7463 146.141 18.1279 146.413 18.6186C146.604 19.1093 146.795 19.6817 146.795 20.445C146.795 21.3173 146.604 22.0806 146.223 22.6531C145.841 23.2255 145.35 23.798 144.778 24.2069C144.205 24.6158 143.524 24.8884 142.761 25.0792C141.997 25.27 141.207 25.3791 140.553 25.3791C139.299 25.3791 138.154 25.1882 137.172 24.8066C136.218 24.425 135.346 23.7435 134.555 22.6803L136.763 20.8539C137.254 21.3446 137.717 21.7262 138.317 22.1079C138.917 22.4895 139.571 22.6803 140.443 22.6803C140.825 22.6803 141.207 22.6803 141.588 22.5713C141.97 22.4622 142.27 22.3805 142.543 22.1896C142.842 21.9988 143.033 21.808 143.224 21.6172C143.415 21.3173 143.524 21.0447 143.524 20.7449C143.524 20.3632 143.415 19.9816 143.142 19.6817C142.842 19.3819 142.57 19.191 142.188 19.0002C141.806 18.8094 141.425 18.7004 141.043 18.6186L139.898 18.3187C139.326 18.1279 138.644 18.0189 138.154 17.828C137.581 17.6372 137.091 17.3374 136.709 17.0648C136.327 16.7649 135.946 16.3015 135.646 15.8108C135.346 15.3201 135.264 14.6659 135.264 13.9844C135.264 13.2211 135.455 12.4306 135.755 11.8581C136.055 11.2856 136.518 10.795 137.118 10.4133C137.69 10.0317 138.263 9.73182 138.944 9.541C139.626 9.35018 140.389 9.24115 141.07 9.24115C142.134 9.24115 143.088 9.43196 144.069 9.8136C145.023 10.1952 145.814 10.8767 146.386 11.7491L143.987 13.4119ZM149.603 0.381647H152.492V16.0016L159.062 9.43196H163.015L155.982 16.3833L163.696 24.6703H159.553L152.52 16.7649V24.6703H149.63V0.381647" fill="#8932F6"/>
</svg>
